<svg xmlns="http://www.w3.org/2000/svg" width="293.126953125" height="450.2986755371094" viewBox="-57.85287094116211 -135.461181640625 293.126953125 450.2986755371094"><title>Neo4j Graph Visualization</title><desc>Created using Neo4j (http://www.neo4j.com/)</desc><g class="layer relationships"><g class="relationship" transform="translate(54.760837139558724 79.13240690330271) rotate(415.96763448720264)"><path class="outline" fill="#A5ABB6" stroke="none" d="M 25 0.5 L 45.60729889817971 0.5 L 45.60729889817971 -0.5 L 25 -0.5 Z M 91.1697988981797 0.5 L 111.77709779635941 0.5 L 111.77709779635941 3.5 L 118.77709779635941 0 L 111.77709779635941 -3.5 L 111.77709779635941 -0.5 L 91.1697988981797 -0.5 Z"/><text text-anchor="middle" pointer-events="none" font-size="8px" fill="#000000" x="68.3885488981797" y="3" font-family="sans-serif">ACTED_IN</text></g><g class="relationship" transform="translate(54.760837139558724 79.13240690330271) rotate(297.2834575080433)"><path class="outline" fill="#A5ABB6" stroke="none" d="M 25 0.5 L 26.583174077873025 0.5 L 26.583174077873025 -0.5 L 25 -0.5 Z M 56.583174077873025 0.5 L 58.16634815574605 0.5 L 58.16634815574605 3.5 L 65.16634815574605 0 L 58.16634815574605 -3.5 L 58.16634815574605 -0.5 L 56.583174077873025 -0.5 Z"/><text text-anchor="middle" pointer-events="none" font-size="8px" fill="#000000" x="41.583174077873025" y="3" font-family="sans-serif">ACT…</text></g><g class="relationship" transform="translate(54.760837139558724 79.13240690330271) rotate(484.14420357246274)"><path class="outline" fill="#A5ABB6" stroke="none" d="M 25 0.5 L 31.68497025587444 0.5 L 31.68497025587444 -0.5 L 25 -0.5 Z M 77.24747025587445 0.5 L 83.93244051174888 0.5 L 83.93244051174888 3.5 L 90.93244051174888 0 L 83.93244051174888 -3.5 L 83.93244051174888 -0.5 L 77.24747025587445 -0.5 Z"/><text text-anchor="middle" pointer-events="none" font-size="8px" fill="#000000" x="54.46622025587444" y="3" transform="rotate(180 54.46622025587444 0)" font-family="sans-serif">ACTED_IN</text></g><g class="relationship" transform="translate(54.760837139558724 79.13240690330271) rotate(360.5128739281048)"><path class="outline" fill="#A5ABB6" stroke="none" d="M 25 0.5 L 38.18965465341161 0.5 L 38.18965465341161 -0.5 L 25 -0.5 Z M 83.75215465341161 0.5 L 96.94180930682322 0.5 L 96.94180930682322 3.5 L 103.94180930682322 0 L 96.94180930682322 -3.5 L 96.94180930682322 -0.5 L 83.75215465341161 -0.5 Z"/><text text-anchor="middle" pointer-events="none" font-size="8px" fill="#000000" x="60.97090465341161" y="3" font-family="sans-serif">ACTED_IN</text></g><g class="relationship" transform="translate(54.760837139558724 79.13240690330271) rotate(183.71074857707725)"><path class="outline" fill="#A5ABB6" stroke="none" d="M 25 0.5 L 25.838045920256924 0.5 L 25.838045920256924 -0.5 L 25 -0.5 Z M 50.951327170256924 0.5 L 51.78937309051385 0.5 L 51.78937309051385 3.5 L 58.78937309051385 0 L 51.78937309051385 -3.5 L 51.78937309051385 -0.5 L 50.951327170256924 -0.5 Z"/><text text-anchor="middle" pointer-events="none" font-size="8px" fill="#000000" x="38.394686545256924" y="3" transform="rotate(180 38.394686545256924 0)" font-family="sans-serif">AC…</text></g><g class="relationship" transform="translate(206.27407871236707 285.8374820649384) rotate(230.94193132511538)"><path class="outline" fill="#A5ABB6" stroke="none" d="M 25 0.5 L 29.431390734042196 0.5 L 29.431390734042196 -0.5 L 25 -0.5 Z M 76.3220157340422 0.5 L 80.75340646808439 0.5 L 80.75340646808439 3.5 L 87.75340646808439 0 L 80.75340646808439 -3.5 L 80.75340646808439 -0.5 L 76.3220157340422 -0.5 Z"/><text text-anchor="middle" pointer-events="none" font-size="8px" fill="#000000" x="52.876703234042196" y="3" transform="rotate(180 52.876703234042196 0)" font-family="sans-serif">DIRECTED</text></g><g class="relationship" transform="translate(62.59794702171643 138.5242945060392) rotate(283.4988331339029)"><path class="outline" fill="#A5ABB6" stroke="none" d="M 24.018736134675446,6.953439040707552 L 24.277555179777966,5.987513214418485 A 178.0305942001911 178.0305942001911 0 0 0 42.50543180310755,9.861952340145848 L 42.34899896137203,10.849640937845834 A 179.0305942001911 179.0305942001911 0 0 1 24.018736134675446,6.953439040707552 Z M 94.08968951641683,11.473525591771079 L 93.95711761688902,10.482352200554601 A 178.0305942001911 178.0305942001911 0 0 0 112.27311629451825,7.0485558793714045 L 111.56675703790064,4.132898732073281 L 119.19404284765014,5.8863271384800155 L 113.21492863667505,10.936098742435568 L 112.50856938005745,8.020441595137445 A 179.0305942001911 179.0305942001911 0 0 1 94.08968951641683,11.473525591771079"/><text text-anchor="middle" pointer-events="none" font-size="8px" fill="#000000" x="68.20271398956817" y="15.540781452853992" font-family="sans-serif">PRODUCED</text></g><g class="relationship" transform="translate(62.59794702171643 138.5242945060392) rotate(283.4988331339029)"><path class="outline" fill="#A5ABB6" stroke="none" d="M 24.018736134675446,-6.953439040707552 L 24.277555179777966,-5.987513214418485 A 178.0305942001911 178.0305942001911 0 0 1 50.41400141692574,-10.93342000282317 L 50.301991106325104,-11.927127047338388 A 179.0305942001911 179.0305942001911 0 0 0 24.018736134675446,-6.953439040707552 Z M 86.11302897128553,-12.358933363129921 L 86.02501180599612,-11.362814405065961 A 178.0305942001911 178.0305942001911 0 0 1 112.27311629451825,-7.0485558793714045 L 111.56675703790064,-4.132898732073281 L 119.19404284765014,-5.8863271384800155 L 113.21492863667505,-10.936098742435568 L 112.50856938005745,-8.020441595137445 A 179.0305942001911 179.0305942001911 0 0 0 86.11302897128553,-12.358933363129921"/><text text-anchor="middle" pointer-events="none" font-size="8px" fill="#000000" x="68.2027139895681" y="-9.540781452853992" font-family="sans-serif">WROTE</text></g><g class="relationship" transform="translate(62.59794702171643 138.5242945060392) rotate(399.4474869536488)"><path class="outline" fill="#A5ABB6" stroke="none" d="M 25 0.5 L 26.970464623942192 0.5 L 26.970464623942192 -0.5 L 25 -0.5 Z M 60.08374587394219 0.5 L 62.054210497884384 0.5 L 62.054210497884384 3.5 L 69.05421049788438 0 L 62.054210497884384 -3.5 L 62.054210497884384 -0.5 L 60.08374587394219 -0.5 Z"/><text text-anchor="middle" pointer-events="none" font-size="8px" fill="#000000" x="43.52710524894219" y="3" font-family="sans-serif">DIRE…</text></g><g class="relationship" transform="translate(62.59794702171643 138.5242945060392) rotate(513.370044680657)"><path class="outline" fill="#A5ABB6" stroke="none" d="M 25 0.5 L 26.279599427733785 0.5 L 26.279599427733785 -0.5 L 25 -0.5 Z M 48.279599427733785 0.5 L 49.55919885546757 0.5 L 49.55919885546757 3.5 L 56.55919885546757 0 L 49.55919885546757 -3.5 L 49.55919885546757 -0.5 L 48.279599427733785 -0.5 Z"/><text text-anchor="middle" pointer-events="none" font-size="8px" fill="#000000" x="37.279599427733785" y="3" transform="rotate(180 37.279599427733785 0)" font-family="sans-serif">DI…</text></g><g class="relationship" transform="translate(62.59794702171643 138.5242945060392) rotate(334.31673930968884)"><path class="outline" fill="#A5ABB6" stroke="none" d="M 25 0.5 L 40.24234798990672 0.5 L 40.24234798990672 -0.5 L 25 -0.5 Z M 87.13297298990672 0.5 L 102.37532097981344 0.5 L 102.37532097981344 3.5 L 109.37532097981344 0 L 102.37532097981344 -3.5 L 102.37532097981344 -0.5 L 87.13297298990672 -0.5 Z"/><text text-anchor="middle" pointer-events="none" font-size="8px" fill="#000000" x="63.68766048990672" y="3" font-family="sans-serif">DIRECTED</text></g><g class="relationship" transform="translate(62.59794702171643 138.5242945060392) rotate(215.32666026218874)"><path class="outline" fill="#A5ABB6" stroke="none" d="M 25 0.5 L 29.09975158736212 0.5 L 29.09975158736212 -0.5 L 25 -0.5 Z M 75.99037658736212 0.5 L 80.09012817472424 0.5 L 80.09012817472424 3.5 L 87.09012817472424 0 L 80.09012817472424 -3.5 L 80.09012817472424 -0.5 L 75.99037658736212 -0.5 Z"/><text text-anchor="middle" pointer-events="none" font-size="8px" fill="#000000" x="52.54506408736212" y="3" transform="rotate(180 52.54506408736212 0)" font-family="sans-serif">DIRECTED</text></g><g class="relationship" transform="translate(109.88554928275639 102.18853513104698) rotate(262.38668163544844)"><path class="outline" fill="#A5ABB6" stroke="none" d="M 24.018736134675446,6.953439040707552 L 24.277555179777966,5.987513214418485 A 99.9183746492106 99.9183746492106 0 0 0 24.580142862916304,6.068083376544578 L 24.324352166545445,7.03481556264893 A 100.9183746492106 100.9183746492106 0 0 1 24.018736134675446,6.953439040707552 Z M 72.75090104854709,7.826151970242108 L 72.52683315573307,6.851578433042448 A 99.9183746492106 99.9183746492106 0 0 0 72.83189176883194,6.780937796109721 L 72.1505288557395,3.859338134851837 L 79.76251813061575,5.6780242757703405 L 73.7403756529552,10.676404011120233 L 73.05901273986275,7.75480434986235 A 100.9183746492106 100.9183746492106 0 0 1 72.75090104854709,7.826151970242108"/><text text-anchor="middle" pointer-events="none" font-size="8px" fill="#000000" x="48.49761966733667" y="12.87874474254781" transform="rotate(180 48.49761966733667 9.87874474254781)" font-family="sans-serif">PRODUC…</text></g><g class="relationship" transform="translate(109.88554928275639 102.18853513104698) rotate(262.38668163544844)"><path class="outline" fill="#A5ABB6" stroke="none" d="M 24.018736134675446,-6.953439040707552 L 24.277555179777966,-5.987513214418485 A 99.9183746492106 99.9183746492106 0 0 1 30.83028748365118,-7.508875230750789 L 30.637049292189225,-8.490027105518664 A 100.9183746492106 100.9183746492106 0 0 0 24.018736134675446,-6.953439040707552 Z M 66.39402792703946,-9.074330543870943 L 66.23295027900102,-8.087388807342194 A 99.9183746492106 99.9183746492106 0 0 1 72.83189176883194,-6.780937796109721 L 72.1505288557395,-3.859338134851837 L 79.76251813061575,-5.6780242757703405 L 73.7403756529552,-10.676404011120233 L 73.05901273986275,-7.75480434986235 A 100.9183746492106 100.9183746492106 0 0 0 66.39402792703946,-9.074330543870943"/><text text-anchor="middle" pointer-events="none" font-size="8px" fill="#000000" x="48.49761966733668" y="-6.878744742547809" transform="rotate(180 48.49761966733668 -9.87874474254781)" font-family="sans-serif">WROTE</text></g><g class="relationship" transform="translate(109.88554928275639 102.18853513104698) rotate(435.226570238158)"><path class="outline" fill="#A5ABB6" stroke="none" d="M 25 0.5 L 26.74488507226954 0.5 L 26.74488507226954 -0.5 L 25 -0.5 Z M 65.63551007226954 0.5 L 67.38039514453908 0.5 L 67.38039514453908 3.5 L 74.38039514453908 0 L 67.38039514453908 -3.5 L 67.38039514453908 -0.5 L 65.63551007226954 -0.5 Z"/><text text-anchor="middle" pointer-events="none" font-size="8px" fill="#000000" x="46.19019757226954" y="3" font-family="sans-serif">DIREC…</text></g><g class="relationship" transform="translate(109.88554928275639 102.18853513104698) rotate(508.76511042852127)"><path class="outline" fill="#A5ABB6" stroke="none" d="M 25 0.5 L 43.340163068601825 0.5 L 43.340163068601825 -0.5 L 25 -0.5 Z M 90.23078806860183 0.5 L 108.57095113720365 0.5 L 108.57095113720365 3.5 L 115.57095113720365 0 L 108.57095113720365 -3.5 L 108.57095113720365 -0.5 L 90.23078806860183 -0.5 Z"/><text text-anchor="middle" pointer-events="none" font-size="8px" fill="#000000" x="66.78547556860183" y="3" transform="rotate(180 66.78547556860183 0)" font-family="sans-serif">DIRECTED</text></g><g class="relationship" transform="translate(109.88554928275639 102.18853513104698) rotate(343.4729918776321)"><path class="outline" fill="#A5ABB6" stroke="none" d="M 25 0.5 L 25.107744416192794 0.5 L 25.107744416192794 -0.5 L 25 -0.5 Z M 44.885088166192794 0.5 L 44.99283258238559 0.5 L 44.99283258238559 3.5 L 51.99283258238559 0 L 44.99283258238559 -3.5 L 44.99283258238559 -0.5 L 44.885088166192794 -0.5 Z"/><text text-anchor="middle" pointer-events="none" font-size="8px" fill="#000000" x="34.996416291192794" y="3" font-family="sans-serif">D…</text></g><g class="relationship" transform="translate(109.88554928275639 102.18853513104698) rotate(191.60001110146857)"><path class="outline" fill="#A5ABB6" stroke="none" d="M 25 0.5 L 43.87029147393848 0.5 L 43.87029147393848 -0.5 L 25 -0.5 Z M 90.76091647393848 0.5 L 109.63120794787696 0.5 L 109.63120794787696 3.5 L 116.63120794787696 0 L 109.63120794787696 -3.5 L 109.63120794787696 -0.5 L 90.76091647393848 -0.5 Z"/><text text-anchor="middle" pointer-events="none" font-size="8px" fill="#000000" x="67.31560397393848" y="3" transform="rotate(180 67.31560397393848 0)" font-family="sans-serif">DIRECTED</text></g><g class="relationship" transform="translate(136.9612181382426 -106.46118018163293) rotate(471.1830865075424)"><path class="outline" fill="#A5ABB6" stroke="none" d="M 25 0.5 L 29.60489603880083 0.5 L 29.60489603880083 -0.5 L 25 -0.5 Z M 76.49552103880083 0.5 L 81.10041707760166 0.5 L 81.10041707760166 3.5 L 88.10041707760166 0 L 81.10041707760166 -3.5 L 81.10041707760166 -0.5 L 76.49552103880083 -0.5 Z"/><text text-anchor="middle" pointer-events="none" font-size="8px" fill="#000000" x="53.05020853880083" y="3" transform="rotate(180 53.05020853880083 0)" font-family="sans-serif">DIRECTED</text></g></g><g class="layer nodes"><g class="node" transform="translate(54.760837139558724,79.13240690330271)"><circle class="outline" cx="0" cy="0" r="25" fill="#F79767" stroke="#f36924" stroke-width="2px"/><text text-anchor="middle" pointer-events="none" font-family="sans-serif" dy="1.5625" font-size="25" fill="#FFFFFF"/><text text-anchor="middle" pointer-events="none" font-family="sans-serif" dy="1.5625" font-size="25" fill="#FFFFFF"/><text text-anchor="middle" pointer-events="none" x="0" y="0" font-size="10px" fill="#FFFFFF" font-family="sans-serif"> Hugo</text><text text-anchor="middle" pointer-events="none" x="0" y="10" font-size="10px" fill="#FFFFFF" font-family="sans-serif"> Weaving</text></g><g class="node" transform="translate(135.22728943004128,198.28358778929893)"><circle class="outline" cx="0" cy="0" r="25" fill="#57C7E3" stroke="#23b3d7" stroke-width="2px"/><text text-anchor="middle" pointer-events="none" font-family="sans-serif" dy="1.5625" font-size="25" fill="#2A2C34"/><text text-anchor="middle" pointer-events="none" font-family="sans-serif" dy="1.5625" font-size="25" fill="#2A2C34"/><text text-anchor="middle" pointer-events="none" x="0" y="0" font-size="10px" fill="#2A2C34" font-family="sans-serif"> Cloud</text><text text-anchor="middle" pointer-events="none" x="0" y="10" font-size="10px" fill="#2A2C34" font-family="sans-serif"> Atlas</text></g><g class="node" transform="translate(206.27407871236707,285.8374820649384)"><circle class="outline" cx="0" cy="0" r="25" fill="#F79767" stroke="#f36924" stroke-width="2px"/><text text-anchor="middle" pointer-events="none" font-family="sans-serif" dy="1.5625" font-size="25" fill="#FFFFFF"/><text text-anchor="middle" pointer-events="none" font-family="sans-serif" dy="1.5625" font-size="25" fill="#FFFFFF"/><text text-anchor="middle" pointer-events="none" x="0" y="0" font-size="10px" fill="#FFFFFF" font-family="sans-serif"> Tom</text><text text-anchor="middle" pointer-events="none" x="0" y="10" font-size="10px" fill="#FFFFFF" font-family="sans-serif"> Tykwer</text></g><g class="node" transform="translate(62.59794702171643,138.5242945060392)"><circle class="outline" cx="0" cy="0" r="25" fill="#F79767" stroke="#f36924" stroke-width="2px"/><text text-anchor="middle" pointer-events="none" font-family="sans-serif" dy="1.5625" font-size="25" fill="#FFFFFF"/><text text-anchor="middle" pointer-events="none" font-family="sans-serif" dy="1.5625" font-size="25" fill="#FFFFFF"/><text text-anchor="middle" pointer-events="none" x="0" y="0" font-size="10px" fill="#FFFFFF" font-family="sans-serif"> Lana</text><text text-anchor="middle" pointer-events="none" x="0" y="10" font-size="10px" fill="#FFFFFF" font-family="sans-serif"> Wacho…</text></g><g class="node" transform="translate(109.88554928275639,102.18853513104698)"><circle class="outline" cx="0" cy="0" r="25" fill="#F79767" stroke="#f36924" stroke-width="2px"/><text text-anchor="middle" pointer-events="none" font-family="sans-serif" dy="1.5625" font-size="25" fill="#FFFFFF"/><text text-anchor="middle" pointer-events="none" font-family="sans-serif" dy="1.5625" font-size="25" fill="#FFFFFF"/><text text-anchor="middle" pointer-events="none" x="0" y="0" font-size="10px" fill="#FFFFFF" font-family="sans-serif"> Lilly</text><text text-anchor="middle" pointer-events="none" x="0" y="10" font-size="10px" fill="#FFFFFF" font-family="sans-serif"> Wacho…</text></g><g class="node" transform="translate(96.09245753151056,-1.0029005180755457)"><circle class="outline" cx="0" cy="0" r="25" fill="#57C7E3" stroke="#23b3d7" stroke-width="2px"/><text text-anchor="middle" pointer-events="none" font-family="sans-serif" dy="1.5625" font-size="25" fill="#2A2C34"/><text text-anchor="middle" pointer-events="none" font-family="sans-serif" dy="1.5625" font-size="25" fill="#2A2C34"/><text text-anchor="middle" pointer-events="none" x="0" y="0" font-size="10px" fill="#2A2C34" font-family="sans-serif"> V for</text><text text-anchor="middle" pointer-events="none" x="0" y="10" font-size="10px" fill="#2A2C34" font-family="sans-serif"> Vendetta</text></g><g class="node" transform="translate(136.9612181382426,-106.46118018163293)"><circle class="outline" cx="0" cy="0" r="25" fill="#F79767" stroke="#f36924" stroke-width="2px"/><text text-anchor="middle" pointer-events="none" font-family="sans-serif" dy="1.5625" font-size="25" fill="#FFFFFF"/><text text-anchor="middle" pointer-events="none" font-family="sans-serif" dy="1.5625" font-size="25" fill="#FFFFFF"/><text text-anchor="middle" pointer-events="none" x="0" y="0" font-size="10px" fill="#FFFFFF" font-family="sans-serif"> James</text><text text-anchor="middle" pointer-events="none" x="0" y="10" font-size="10px" fill="#FFFFFF" font-family="sans-serif"> Marshall</text></g><g class="node" transform="translate(-10.309453463537043,175.08128935556923)"><circle class="outline" cx="0" cy="0" r="25" fill="#57C7E3" stroke="#23b3d7" stroke-width="2px"/><text text-anchor="middle" pointer-events="none" font-family="sans-serif" dy="1.5625" font-size="25" fill="#2A2C34"/><text text-anchor="middle" pointer-events="none" font-family="sans-serif" dy="1.5625" font-size="25" fill="#2A2C34"/><text text-anchor="middle" pointer-events="none" font-family="sans-serif" dy="1.5625" font-size="25" fill="#2A2C34"/><text text-anchor="middle" pointer-events="none" x="0" y="-5" font-size="10px" fill="#2A2C34" font-family="sans-serif"> The</text><text text-anchor="middle" pointer-events="none" x="0" y="5" font-size="10px" fill="#2A2C34" font-family="sans-serif"> Matrix</text><text text-anchor="middle" pointer-events="none" x="0" y="15" font-size="10px" fill="#2A2C34" font-family="sans-serif"> Revol…</text></g><g class="node" transform="translate(183.69748065522873,80.28659329648151)"><circle class="outline" cx="0" cy="0" r="25" fill="#57C7E3" stroke="#23b3d7" stroke-width="2px"/><text text-anchor="middle" pointer-events="none" font-family="sans-serif" dy="1.5625" font-size="25" fill="#2A2C34"/><text text-anchor="middle" pointer-events="none" font-family="sans-serif" dy="1.5625" font-size="25" fill="#2A2C34"/><text text-anchor="middle" pointer-events="none" font-family="sans-serif" dy="1.5625" font-size="25" fill="#2A2C34"/><text text-anchor="middle" pointer-events="none" x="0" y="-5" font-size="10px" fill="#2A2C34" font-family="sans-serif"> The</text><text text-anchor="middle" pointer-events="none" x="0" y="5" font-size="10px" fill="#2A2C34" font-family="sans-serif"> Matrix</text><text text-anchor="middle" pointer-events="none" x="0" y="15" font-size="10px" fill="#2A2C34" font-family="sans-serif"> Reloa…</text></g><g class="node" transform="translate(-28.852871075846124,73.70959938593057)"><circle class="outline" cx="0" cy="0" r="25" fill="#57C7E3" stroke="#23b3d7" stroke-width="2px"/><text text-anchor="middle" pointer-events="none" font-family="sans-serif" dy="1.5625" font-size="25" fill="#2A2C34"/><text text-anchor="middle" pointer-events="none" font-family="sans-serif" dy="1.5625" font-size="25" fill="#2A2C34"/><text text-anchor="middle" pointer-events="none" x="0" y="0" font-size="10px" fill="#2A2C34" font-family="sans-serif"> The</text><text text-anchor="middle" pointer-events="none" x="0" y="10" font-size="10px" fill="#2A2C34" font-family="sans-serif"> Matrix</text></g></g></svg>