<svg xmlns="http://www.w3.org/2000/svg" width="490.9068298339844" height="481.7835693359375" viewBox="-168.9384765625 -120.52625274658203 490.9068298339844 481.7835693359375"><title>Neo4j Graph Visualization</title><desc>Created using Neo4j (http://www.neo4j.com/)</desc><g class="layer relationships"><g class="relationship" transform="translate(68.79827144820493 102.99058096169678) rotate(419.2492903300352)"><path class="outline" fill="#A5ABB6" stroke="none" d="M 25 0.5 L 39.351367084436404 0.5 L 39.351367084436404 -0.5 L 25 -0.5 Z M 84.9138670844364 0.5 L 99.26523416887281 0.5 L 99.26523416887281 3.5 L 106.26523416887281 0 L 99.26523416887281 -3.5 L 99.26523416887281 -0.5 L 84.9138670844364 -0.5 Z"/><text text-anchor="middle" pointer-events="none" font-size="8px" fill="#000000" x="62.132617084436404" y="3" font-family="sans-serif">ACTED_IN</text></g><g class="relationship" transform="translate(68.79827144820493 102.99058096169678) rotate(324.1962882382496)"><path class="outline" fill="#A5ABB6" stroke="none" d="M 25 0.5 L 38.76580908081168 0.5 L 38.76580908081168 -0.5 L 25 -0.5 Z M 84.32830908081168 0.5 L 98.09411816162336 0.5 L 98.09411816162336 3.5 L 105.09411816162336 0 L 98.09411816162336 -3.5 L 98.09411816162336 -0.5 L 84.32830908081168 -0.5 Z"/><text text-anchor="middle" pointer-events="none" font-size="8px" fill="#000000" x="61.54705908081168" y="3" font-family="sans-serif">ACTED_IN</text></g><g class="relationship" transform="translate(68.79827144820493 102.99058096169678) rotate(226.33994749966593)"><path class="outline" fill="#A5ABB6" stroke="none" d="M 25 0.5 L 36.909408030566155 0.5 L 36.909408030566155 -0.5 L 25 -0.5 Z M 82.47190803056615 0.5 L 94.38131606113231 0.5 L 94.38131606113231 3.5 L 101.38131606113231 0 L 94.38131606113231 -3.5 L 94.38131606113231 -0.5 L 82.47190803056615 -0.5 Z"/><text text-anchor="middle" pointer-events="none" font-size="8px" fill="#000000" x="59.690658030566155" y="3" transform="rotate(180 59.690658030566155 0)" font-family="sans-serif">ACTED_IN</text></g><g class="relationship" transform="translate(68.79827144820493 102.99058096169678) rotate(197.26397269529014)"><path class="outline" fill="#A5ABB6" stroke="none" d="M 25 0.5 L 28.23751680088411 0.5 L 28.23751680088411 -0.5 L 25 -0.5 Z M 73.80001680088411 0.5 L 77.03753360176822 0.5 L 77.03753360176822 3.5 L 84.03753360176822 0 L 77.03753360176822 -3.5 L 77.03753360176822 -0.5 L 73.80001680088411 -0.5 Z"/><text text-anchor="middle" pointer-events="none" font-size="8px" fill="#000000" x="51.01876680088411" y="3" transform="rotate(180 51.01876680088411 0)" font-family="sans-serif">ACTED_IN</text></g><g class="relationship" transform="translate(68.79827144820493 102.99058096169678) rotate(527.0438228021333)"><path class="outline" fill="#A5ABB6" stroke="none" d="M 25 0.5 L 38.37226378506263 0.5 L 38.37226378506263 -0.5 L 25 -0.5 Z M 83.93476378506263 0.5 L 97.30702757012526 0.5 L 97.30702757012526 3.5 L 104.30702757012526 0 L 97.30702757012526 -3.5 L 97.30702757012526 -0.5 L 83.93476378506263 -0.5 Z"/><text text-anchor="middle" pointer-events="none" font-size="8px" fill="#000000" x="61.15351378506263" y="3" transform="rotate(180 61.15351378506263 0)" font-family="sans-serif">ACTED_IN</text></g><g class="relationship" transform="translate(209.05551658827554 313.67970050370286) rotate(233.23100649868138)"><path class="outline" fill="#A5ABB6" stroke="none" d="M 25 0.5 L 34.81300389725764 0.5 L 34.81300389725764 -0.5 L 25 -0.5 Z M 80.37550389725763 0.5 L 90.18850779451527 0.5 L 90.18850779451527 3.5 L 97.18850779451527 0 L 90.18850779451527 -3.5 L 90.18850779451527 -0.5 L 80.37550389725763 -0.5 Z"/><text text-anchor="middle" pointer-events="none" font-size="8px" fill="#000000" x="57.59425389725764" y="3" transform="rotate(180 57.59425389725764 0)" font-family="sans-serif">ACTED_IN</text></g><g class="relationship" transform="translate(108.99149797015185 332.2573302606463) rotate(283.01722000798094)"><path class="outline" fill="#A5ABB6" stroke="none" d="M 25 0.5 L 33.483251879511755 0.5 L 33.483251879511755 -0.5 L 25 -0.5 Z M 79.04575187951176 0.5 L 87.52900375902351 0.5 L 87.52900375902351 3.5 L 94.52900375902351 0 L 87.52900375902351 -3.5 L 87.52900375902351 -0.5 L 79.04575187951176 -0.5 Z"/><text text-anchor="middle" pointer-events="none" font-size="8px" fill="#000000" x="56.264501879511755" y="3" font-family="sans-serif">ACTED_IN</text></g><g class="relationship" transform="translate(255.81076167375454 232.81292409344246) rotate(188.0762280266498)"><path class="outline" fill="#A5ABB6" stroke="none" d="M 25 0.5 L 34.26731182079154 0.5 L 34.26731182079154 -0.5 L 25 -0.5 Z M 79.82981182079155 0.5 L 89.09712364158308 0.5 L 89.09712364158308 3.5 L 96.09712364158308 0 L 89.09712364158308 -3.5 L 89.09712364158308 -0.5 L 79.82981182079155 -0.5 Z"/><text text-anchor="middle" pointer-events="none" font-size="8px" fill="#000000" x="57.04856182079154" y="3" transform="rotate(180 57.04856182079154 0)" font-family="sans-serif">ACTED_IN</text></g><g class="relationship" transform="translate(292.9683402694024 -8.193506325652184) rotate(523.531568124203)"><path class="outline" fill="#A5ABB6" stroke="none" d="M 25 0.5 L 35.58701243319676 0.5 L 35.58701243319676 -0.5 L 25 -0.5 Z M 81.14951243319676 0.5 L 91.73652486639352 0.5 L 91.73652486639352 3.5 L 98.73652486639352 0 L 91.73652486639352 -3.5 L 91.73652486639352 -0.5 L 81.14951243319676 -0.5 Z"/><text text-anchor="middle" pointer-events="none" font-size="8px" fill="#000000" x="58.36826243319676" y="3" transform="rotate(180 58.36826243319676 0)" font-family="sans-serif">ACTED_IN</text></g><g class="relationship" transform="translate(237.59848119162723 -78.57535623284488) rotate(480.96965979888705)"><path class="outline" fill="#A5ABB6" stroke="none" d="M 25 0.5 L 35.215507674101595 0.5 L 35.215507674101595 -0.5 L 25 -0.5 Z M 80.77800767410159 0.5 L 90.99351534820319 0.5 L 90.99351534820319 3.5 L 97.99351534820319 0 L 90.99351534820319 -3.5 L 90.99351534820319 -0.5 L 80.77800767410159 -0.5 Z"/><text text-anchor="middle" pointer-events="none" font-size="8px" fill="#000000" x="57.996757674101595" y="3" transform="rotate(180 57.996757674101595 0)" font-family="sans-serif">ACTED_IN</text></g><g class="relationship" transform="translate(282.8758116793529 78.8561435905963) rotate(205.5806644740186)"><path class="outline" fill="#A5ABB6" stroke="none" d="M 25 0.5 L 33.90192692240365 0.5 L 33.90192692240365 -0.5 L 25 -0.5 Z M 79.46442692240365 0.5 L 88.3663538448073 0.5 L 88.3663538448073 3.5 L 95.3663538448073 0 L 88.3663538448073 -3.5 L 88.3663538448073 -0.5 L 79.46442692240365 -0.5 Z"/><text text-anchor="middle" pointer-events="none" font-size="8px" fill="#000000" x="56.68317692240365" y="3" transform="rotate(180 56.68317692240365 0)" font-family="sans-serif">ACTED_IN</text></g><g class="relationship" transform="translate(146.9195376271577 -91.52625582793225) rotate(436.97646777885484)"><path class="outline" fill="#A5ABB6" stroke="none" d="M 25 0.5 L 34.487082119872056 0.5 L 34.487082119872056 -0.5 L 25 -0.5 Z M 80.04958211987206 0.5 L 89.53666423974411 0.5 L 89.53666423974411 3.5 L 96.53666423974411 0 L 89.53666423974411 -3.5 L 89.53666423974411 -0.5 L 80.04958211987206 -0.5 Z"/><text text-anchor="middle" pointer-events="none" font-size="8px" fill="#000000" x="57.268332119872056" y="3" font-family="sans-serif">ACTED_IN</text></g><g class="relationship" transform="translate(-134.33411258411832 35.91388093519397) rotate(348.1314210786178)"><path class="outline" fill="#A5ABB6" stroke="none" d="M 25 0.5 L 32.92521099635402 0.5 L 32.92521099635402 -0.5 L 25 -0.5 Z M 78.48771099635402 0.5 L 86.41292199270804 0.5 L 86.41292199270804 3.5 L 93.41292199270804 0 L 86.41292199270804 -3.5 L 86.41292199270804 -0.5 L 78.48771099635402 -0.5 Z"/><text text-anchor="middle" pointer-events="none" font-size="8px" fill="#000000" x="55.70646099635402" y="3" font-family="sans-serif">ACTED_IN</text></g><g class="relationship" transform="translate(-134.33411258411832 35.91388093519397) rotate(379.32334672226375)"><path class="outline" fill="#A5ABB6" stroke="none" d="M 25 0.5 L 26.17758214018408 0.5 L 26.17758214018408 -0.5 L 25 -0.5 Z M 71.74008214018409 0.5 L 72.91766428036816 0.5 L 72.91766428036816 3.5 L 79.91766428036816 0 L 72.91766428036816 -3.5 L 72.91766428036816 -0.5 L 71.74008214018409 -0.5 Z"/><text text-anchor="middle" pointer-events="none" font-size="8px" fill="#000000" x="48.95883214018408" y="3" font-family="sans-serif">ACTED_IN</text></g><g class="relationship" transform="translate(-134.33411258411832 35.91388093519397) rotate(411.2447433538091)"><path class="outline" fill="#A5ABB6" stroke="none" d="M 25 0.5 L 35.314508496771836 0.5 L 35.314508496771836 -0.5 L 25 -0.5 Z M 80.87700849677184 0.5 L 91.19151699354367 0.5 L 91.19151699354367 3.5 L 98.19151699354367 0 L 91.19151699354367 -3.5 L 91.19151699354367 -0.5 L 80.87700849677184 -0.5 Z"/><text text-anchor="middle" pointer-events="none" font-size="8px" fill="#000000" x="58.095758496771836" y="3" font-family="sans-serif">ACTED_IN</text></g><g class="relationship" transform="translate(-100.33150324212971 -13.510024475314067) rotate(377.0238848019294)"><path class="outline" fill="#A5ABB6" stroke="none" d="M 25 0.5 L 26.758850543499584 0.5 L 26.758850543499584 -0.5 L 25 -0.5 Z M 51.872131793499584 0.5 L 53.63098233699917 0.5 L 53.63098233699917 3.5 L 60.63098233699917 0 L 53.63098233699917 -3.5 L 53.63098233699917 -0.5 L 51.872131793499584 -0.5 Z"/><text text-anchor="middle" pointer-events="none" font-size="8px" fill="#000000" x="39.315491168499584" y="3" font-family="sans-serif">AC…</text></g><g class="relationship" transform="translate(-100.33150324212971 -13.510024475314067) rotate(412.3114902867385)"><path class="outline" fill="#A5ABB6" stroke="none" d="M 25 0.5 L 26.881989044598015 0.5 L 26.881989044598015 -0.5 L 25 -0.5 Z M 72.44448904459801 0.5 L 74.32647808919603 0.5 L 74.32647808919603 3.5 L 81.32647808919603 0 L 74.32647808919603 -3.5 L 74.32647808919603 -0.5 L 72.44448904459801 -0.5 Z"/><text text-anchor="middle" pointer-events="none" font-size="8px" fill="#000000" x="49.663239044598015" y="3" font-family="sans-serif">ACTED_IN</text></g><g class="relationship" transform="translate(-100.33150324212971 -13.510024475314067) rotate(433.4934914293241)"><path class="outline" fill="#A5ABB6" stroke="none" d="M 25 0.5 L 49.59165634786655 0.5 L 49.59165634786655 -0.5 L 25 -0.5 Z M 95.15415634786655 0.5 L 119.7458126957331 0.5 L 119.7458126957331 3.5 L 126.7458126957331 0 L 119.7458126957331 -3.5 L 119.7458126957331 -0.5 L 95.15415634786655 -0.5 Z"/><text text-anchor="middle" pointer-events="none" font-size="8px" fill="#000000" x="72.37290634786655" y="3" font-family="sans-serif">ACTED_IN</text></g><g class="relationship" transform="translate(-139.93848194437322 95.63647390809798) rotate(325.31418941936863)"><path class="outline" fill="#A5ABB6" stroke="none" d="M 25 0.5 L 47.58964065221477 0.5 L 47.58964065221477 -0.5 L 25 -0.5 Z M 93.15214065221477 0.5 L 115.74178130442954 0.5 L 115.74178130442954 3.5 L 122.74178130442954 0 L 115.74178130442954 -3.5 L 115.74178130442954 -0.5 L 93.15214065221477 -0.5 Z"/><text text-anchor="middle" pointer-events="none" font-size="8px" fill="#000000" x="70.37089065221477" y="3" font-family="sans-serif">ACTED_IN</text></g><g class="relationship" transform="translate(-139.93848194437322 95.63647390809798) rotate(346.5567595628738)"><path class="outline" fill="#A5ABB6" stroke="none" d="M 25 0.5 L 27.498076967874518 0.5 L 27.498076967874518 -0.5 L 25 -0.5 Z M 73.06057696787451 0.5 L 75.55865393574904 0.5 L 75.55865393574904 3.5 L 82.55865393574904 0 L 75.55865393574904 -3.5 L 75.55865393574904 -0.5 L 73.06057696787451 -0.5 Z"/><text text-anchor="middle" pointer-events="none" font-size="8px" fill="#000000" x="50.27932696787452" y="3" font-family="sans-serif">ACTED_IN</text></g><g class="relationship" transform="translate(-139.93848194437322 95.63647390809798) rotate(383.7192896590741)"><path class="outline" fill="#A5ABB6" stroke="none" d="M 25 0.5 L 26.67705422475165 0.5 L 26.67705422475165 -0.5 L 25 -0.5 Z M 56.67705422475165 0.5 L 58.3541084495033 0.5 L 58.3541084495033 3.5 L 65.3541084495033 0 L 58.3541084495033 -3.5 L 58.3541084495033 -0.5 L 56.67705422475165 -0.5 Z"/><text text-anchor="middle" pointer-events="none" font-size="8px" fill="#000000" x="41.67705422475165" y="3" font-family="sans-serif">ACT…</text></g><g class="relationship" transform="translate(-96.529570825494 249.40674662627157) rotate(288.5100701012468)"><path class="outline" fill="#A5ABB6" stroke="none" d="M 25 0.5 L 35.63415985346317 0.5 L 35.63415985346317 -0.5 L 25 -0.5 Z M 81.19665985346316 0.5 L 91.83081970692633 0.5 L 91.83081970692633 3.5 L 98.83081970692633 0 L 91.83081970692633 -3.5 L 91.83081970692633 -0.5 L 81.19665985346316 -0.5 Z"/><text text-anchor="middle" pointer-events="none" font-size="8px" fill="#000000" x="58.41540985346317" y="3" font-family="sans-serif">ACTED_IN</text></g></g><g class="layer nodes"><g class="node" transform="translate(68.79827144820493,102.99058096169678)"><circle class="outline" cx="0" cy="0" r="25" fill="#F79767" stroke="#f36924" stroke-width="2px"/><text text-anchor="middle" pointer-events="none" font-family="sans-serif" dy="1.5625" font-size="25" fill="#FFFFFF"/><text text-anchor="middle" pointer-events="none" font-family="sans-serif" dy="1.5625" font-size="25" fill="#FFFFFF"/><text text-anchor="middle" pointer-events="none" x="0" y="0" font-size="10px" fill="#FFFFFF" font-family="sans-serif"> Hugo</text><text text-anchor="middle" pointer-events="none" x="0" y="10" font-size="10px" fill="#FFFFFF" font-family="sans-serif"> Weaving</text></g><g class="node" transform="translate(135.91467539156528,215.79993351333897)"><circle class="outline" cx="0" cy="0" r="25" fill="#57C7E3" stroke="#23b3d7" stroke-width="2px"/><text text-anchor="middle" pointer-events="none" font-family="sans-serif" dy="1.5625" font-size="25" fill="#2A2C34"/><text text-anchor="middle" pointer-events="none" font-family="sans-serif" dy="1.5625" font-size="25" fill="#2A2C34"/><text text-anchor="middle" pointer-events="none" x="0" y="0" font-size="10px" fill="#2A2C34" font-family="sans-serif"> Cloud</text><text text-anchor="middle" pointer-events="none" x="0" y="10" font-size="10px" fill="#2A2C34" font-family="sans-serif"> Atlas</text></g><g class="node" transform="translate(209.05551658827554,313.67970050370286)"><circle class="outline" cx="0" cy="0" r="25" fill="#F79767" stroke="#f36924" stroke-width="2px"/><text text-anchor="middle" pointer-events="none" font-family="sans-serif" dy="1.5625" font-size="25" fill="#FFFFFF"/><text text-anchor="middle" pointer-events="none" font-family="sans-serif" dy="1.5625" font-size="25" fill="#FFFFFF"/><text text-anchor="middle" pointer-events="none" x="0" y="0" font-size="10px" fill="#FFFFFF" font-family="sans-serif"> Tom</text><text text-anchor="middle" pointer-events="none" x="0" y="10" font-size="10px" fill="#FFFFFF" font-family="sans-serif"> Hanks</text></g><g class="node" transform="translate(108.99149797015185,332.2573302606463)"><circle class="outline" cx="0" cy="0" r="25" fill="#F79767" stroke="#f36924" stroke-width="2px"/><text text-anchor="middle" pointer-events="none" font-family="sans-serif" dy="1.5625" font-size="25" fill="#FFFFFF"/><text text-anchor="middle" pointer-events="none" font-family="sans-serif" dy="1.5625" font-size="25" fill="#FFFFFF"/><text text-anchor="middle" pointer-events="none" x="0" y="0" font-size="10px" fill="#FFFFFF" font-family="sans-serif"> Jim</text><text text-anchor="middle" pointer-events="none" x="0" y="10" font-size="10px" fill="#FFFFFF" font-family="sans-serif"> Broadb…</text></g><g class="node" transform="translate(255.81076167375454,232.81292409344246)"><circle class="outline" cx="0" cy="0" r="25" fill="#F79767" stroke="#f36924" stroke-width="2px"/><text text-anchor="middle" pointer-events="none" font-family="sans-serif" dy="1.5625" font-size="25" fill="#FFFFFF"/><text text-anchor="middle" pointer-events="none" font-family="sans-serif" dy="1.5625" font-size="25" fill="#FFFFFF"/><text text-anchor="middle" pointer-events="none" x="0" y="0" font-size="10px" fill="#FFFFFF" font-family="sans-serif"> Halle</text><text text-anchor="middle" pointer-events="none" x="0" y="10" font-size="10px" fill="#FFFFFF" font-family="sans-serif"> Berry</text></g><g class="node" transform="translate(174.30797361449856,26.884192734226442)"><circle class="outline" cx="0" cy="0" r="25" fill="#57C7E3" stroke="#23b3d7" stroke-width="2px"/><text text-anchor="middle" pointer-events="none" font-family="sans-serif" dy="1.5625" font-size="25" fill="#2A2C34"/><text text-anchor="middle" pointer-events="none" font-family="sans-serif" dy="1.5625" font-size="25" fill="#2A2C34"/><text text-anchor="middle" pointer-events="none" x="0" y="0" font-size="10px" fill="#2A2C34" font-family="sans-serif"> V for</text><text text-anchor="middle" pointer-events="none" x="0" y="10" font-size="10px" fill="#2A2C34" font-family="sans-serif"> Vendetta</text></g><g class="node" transform="translate(292.9683402694024,-8.193506325652184)"><circle class="outline" cx="0" cy="0" r="25" fill="#F79767" stroke="#f36924" stroke-width="2px"/><text text-anchor="middle" pointer-events="none" font-family="sans-serif" dy="1.5625" font-size="25" fill="#FFFFFF"/><text text-anchor="middle" pointer-events="none" x="0" y="5" font-size="10px" fill="#FFFFFF" font-family="sans-serif"> John Hurt</text></g><g class="node" transform="translate(237.59848119162723,-78.57535623284488)"><circle class="outline" cx="0" cy="0" r="25" fill="#F79767" stroke="#f36924" stroke-width="2px"/><text text-anchor="middle" pointer-events="none" font-family="sans-serif" dy="1.5625" font-size="25" fill="#FFFFFF"/><text text-anchor="middle" pointer-events="none" font-family="sans-serif" dy="1.5625" font-size="25" fill="#FFFFFF"/><text text-anchor="middle" pointer-events="none" x="0" y="0" font-size="10px" fill="#FFFFFF" font-family="sans-serif"> Stephen</text><text text-anchor="middle" pointer-events="none" x="0" y="10" font-size="10px" fill="#FFFFFF" font-family="sans-serif"> Rea</text></g><g class="node" transform="translate(282.8758116793529,78.8561435905963)"><circle class="outline" cx="0" cy="0" r="25" fill="#F79767" stroke="#f36924" stroke-width="2px"/><text text-anchor="middle" pointer-events="none" font-family="sans-serif" dy="1.5625" font-size="25" fill="#FFFFFF"/><text text-anchor="middle" pointer-events="none" font-family="sans-serif" dy="1.5625" font-size="25" fill="#FFFFFF"/><text text-anchor="middle" pointer-events="none" x="0" y="0" font-size="10px" fill="#FFFFFF" font-family="sans-serif"> Natalie</text><text text-anchor="middle" pointer-events="none" x="0" y="10" font-size="10px" fill="#FFFFFF" font-family="sans-serif"> Portman</text></g><g class="node" transform="translate(146.9195376271577,-91.52625582793225)"><circle class="outline" cx="0" cy="0" r="25" fill="#F79767" stroke="#f36924" stroke-width="2px"/><text text-anchor="middle" pointer-events="none" font-family="sans-serif" dy="1.5625" font-size="25" fill="#FFFFFF"/><text text-anchor="middle" pointer-events="none" x="0" y="5" font-size="10px" fill="#FFFFFF" font-family="sans-serif"> Ben Miles</text></g><g class="node" transform="translate(-18.452631440436967,11.560186702125723)"><circle class="outline" cx="0" cy="0" r="25" fill="#57C7E3" stroke="#23b3d7" stroke-width="2px"/><text text-anchor="middle" pointer-events="none" font-family="sans-serif" dy="1.5625" font-size="25" fill="#2A2C34"/><text text-anchor="middle" pointer-events="none" font-family="sans-serif" dy="1.5625" font-size="25" fill="#2A2C34"/><text text-anchor="middle" pointer-events="none" font-family="sans-serif" dy="1.5625" font-size="25" fill="#2A2C34"/><text text-anchor="middle" pointer-events="none" x="0" y="-5" font-size="10px" fill="#2A2C34" font-family="sans-serif"> The</text><text text-anchor="middle" pointer-events="none" x="0" y="5" font-size="10px" fill="#2A2C34" font-family="sans-serif"> Matrix</text><text text-anchor="middle" pointer-events="none" x="0" y="15" font-size="10px" fill="#2A2C34" font-family="sans-serif"> Revol…</text></g><g class="node" transform="translate(-134.33411258411832,35.91388093519397)"><circle class="outline" cx="0" cy="0" r="25" fill="#F79767" stroke="#f36924" stroke-width="2px"/><text text-anchor="middle" pointer-events="none" font-family="sans-serif" dy="1.5625" font-size="25" fill="#FFFFFF"/><text text-anchor="middle" pointer-events="none" font-family="sans-serif" dy="1.5625" font-size="25" fill="#FFFFFF"/><text text-anchor="middle" pointer-events="none" x="0" y="0" font-size="10px" fill="#FFFFFF" font-family="sans-serif"> Laurence</text><text text-anchor="middle" pointer-events="none" x="0" y="10" font-size="10px" fill="#FFFFFF" font-family="sans-serif"> Fishbur…</text></g><g class="node" transform="translate(-100.33150324212971,-13.510024475314067)"><circle class="outline" cx="0" cy="0" r="25" fill="#F79767" stroke="#f36924" stroke-width="2px"/><text text-anchor="middle" pointer-events="none" font-family="sans-serif" dy="1.5625" font-size="25" fill="#FFFFFF"/><text text-anchor="middle" pointer-events="none" x="0" y="5" font-size="10px" fill="#FFFFFF" font-family="sans-serif"> Carrie-A…</text></g><g class="node" transform="translate(-139.93848194437322,95.63647390809798)"><circle class="outline" cx="0" cy="0" r="25" fill="#F79767" stroke="#f36924" stroke-width="2px"/><text text-anchor="middle" pointer-events="none" font-family="sans-serif" dy="1.5625" font-size="25" fill="#FFFFFF"/><text text-anchor="middle" pointer-events="none" font-family="sans-serif" dy="1.5625" font-size="25" fill="#FFFFFF"/><text text-anchor="middle" pointer-events="none" x="0" y="0" font-size="10px" fill="#FFFFFF" font-family="sans-serif"> Keanu</text><text text-anchor="middle" pointer-events="none" x="0" y="10" font-size="10px" fill="#FFFFFF" font-family="sans-serif"> Reeves</text></g><g class="node" transform="translate(-35.32685942232332,70.63102510639953)"><circle class="outline" cx="0" cy="0" r="25" fill="#57C7E3" stroke="#23b3d7" stroke-width="2px"/><text text-anchor="middle" pointer-events="none" font-family="sans-serif" dy="1.5625" font-size="25" fill="#2A2C34"/><text text-anchor="middle" pointer-events="none" font-family="sans-serif" dy="1.5625" font-size="25" fill="#2A2C34"/><text text-anchor="middle" pointer-events="none" font-family="sans-serif" dy="1.5625" font-size="25" fill="#2A2C34"/><text text-anchor="middle" pointer-events="none" x="0" y="-5" font-size="10px" fill="#2A2C34" font-family="sans-serif"> The</text><text text-anchor="middle" pointer-events="none" x="0" y="5" font-size="10px" fill="#2A2C34" font-family="sans-serif"> Matrix</text><text text-anchor="middle" pointer-events="none" x="0" y="15" font-size="10px" fill="#2A2C34" font-family="sans-serif"> Reloa…</text></g><g class="node" transform="translate(-57.2168363582728,131.9819587065182)"><circle class="outline" cx="0" cy="0" r="25" fill="#57C7E3" stroke="#23b3d7" stroke-width="2px"/><text text-anchor="middle" pointer-events="none" font-family="sans-serif" dy="1.5625" font-size="25" fill="#2A2C34"/><text text-anchor="middle" pointer-events="none" font-family="sans-serif" dy="1.5625" font-size="25" fill="#2A2C34"/><text text-anchor="middle" pointer-events="none" x="0" y="0" font-size="10px" fill="#2A2C34" font-family="sans-serif"> The</text><text text-anchor="middle" pointer-events="none" x="0" y="10" font-size="10px" fill="#2A2C34" font-family="sans-serif"> Matrix</text></g><g class="node" transform="translate(-96.529570825494,249.40674662627157)"><circle class="outline" cx="0" cy="0" r="25" fill="#F79767" stroke="#f36924" stroke-width="2px"/><text text-anchor="middle" pointer-events="none" font-family="sans-serif" dy="1.5625" font-size="25" fill="#FFFFFF"/><text text-anchor="middle" pointer-events="none" font-family="sans-serif" dy="1.5625" font-size="25" fill="#FFFFFF"/><text text-anchor="middle" pointer-events="none" x="0" y="0" font-size="10px" fill="#FFFFFF" font-family="sans-serif"> Emil</text><text text-anchor="middle" pointer-events="none" x="0" y="10" font-size="10px" fill="#FFFFFF" font-family="sans-serif"> Eifrem</text></g></g></svg>