<svg xmlns="http://www.w3.org/2000/svg" width="237.85325622558594" height="246.63441467285156" viewBox="-9.764728546142578 -11.300052642822266 237.85325622558594 246.63441467285156"><title>Neo4j Graph Visualization</title><desc>Created using Neo4j (http://www.neo4j.com/)</desc><g class="layer relationships"><g class="relationship" transform="translate(125.17285084302726 126.62037453715922) rotate(407.67036294627314)"><path class="outline" fill="#A5ABB6" stroke="none" d="M 25 0.5 L 27.631805006570048 0.5 L 27.631805006570048 -0.5 L 25 -0.5 Z M 73.19430500657005 0.5 L 75.8261100131401 0.5 L 75.8261100131401 3.5 L 82.8261100131401 0 L 75.8261100131401 -3.5 L 75.8261100131401 -0.5 L 73.19430500657005 -0.5 Z"/><text text-anchor="middle" pointer-events="none" font-size="8px" fill="#000000" x="50.41305500657005" y="3" font-family="sans-serif">ACTED_IN</text></g><g class="relationship" transform="translate(125.17285084302726 126.62037453715922) rotate(310.8834746597991)"><path class="outline" fill="#A5ABB6" stroke="none" d="M 25 0.5 L 30.1840722148915 0.5 L 30.1840722148915 -0.5 L 25 -0.5 Z M 75.7465722148915 0.5 L 80.930644429783 0.5 L 80.930644429783 3.5 L 87.930644429783 0 L 80.930644429783 -3.5 L 80.930644429783 -0.5 L 75.7465722148915 -0.5 Z"/><text text-anchor="middle" pointer-events="none" font-size="8px" fill="#000000" x="52.9653222148915" y="3" font-family="sans-serif">ACTED_IN</text></g><g class="relationship" transform="translate(125.17285084302726 126.62037453715922) rotate(254.12324282131567)"><path class="outline" fill="#A5ABB6" stroke="none" d="M 25 0.5 L 30.338887656665506 0.5 L 30.338887656665506 -0.5 L 25 -0.5 Z M 75.9013876566655 0.5 L 81.24027531333101 0.5 L 81.24027531333101 3.5 L 88.24027531333101 0 L 81.24027531333101 -3.5 L 81.24027531333101 -0.5 L 75.9013876566655 -0.5 Z"/><text text-anchor="middle" pointer-events="none" font-size="8px" fill="#000000" x="53.120137656665506" y="3" transform="rotate(180 53.120137656665506 0)" font-family="sans-serif">ACTED_IN</text></g><g class="relationship" transform="translate(125.17285084302726 126.62037453715922) rotate(200.70006248281481)"><path class="outline" fill="#A5ABB6" stroke="none" d="M 25 0.5 L 30.342994495515313 0.5 L 30.342994495515313 -0.5 L 25 -0.5 Z M 75.90549449551531 0.5 L 81.24848899103063 0.5 L 81.24848899103063 3.5 L 88.24848899103063 0 L 81.24848899103063 -3.5 L 81.24848899103063 -0.5 L 75.90549449551531 -0.5 Z"/><text text-anchor="middle" pointer-events="none" font-size="8px" fill="#000000" x="53.12424449551531" y="3" transform="rotate(180 53.12424449551531 0)" font-family="sans-serif">ACTED_IN</text></g><g class="relationship" transform="translate(125.17285084302726 126.62037453715922) rotate(504.0259074003744)"><path class="outline" fill="#A5ABB6" stroke="none" d="M 25 0.5 L 30.202763839623422 0.5 L 30.202763839623422 -0.5 L 25 -0.5 Z M 75.76526383962343 0.5 L 80.96802767924684 0.5 L 80.96802767924684 3.5 L 87.96802767924684 0 L 80.96802767924684 -3.5 L 80.96802767924684 -0.5 L 75.76526383962343 -0.5 Z"/><text text-anchor="middle" pointer-events="none" font-size="8px" fill="#000000" x="52.98401383962342" y="3" transform="rotate(180 52.98401383962342 0)" font-family="sans-serif">ACTED_IN</text></g></g><g class="layer nodes"><g class="node" transform="translate(125.17285084302726,126.62037453715922)"><circle class="outline" cx="0" cy="0" r="25" fill="#F79767" stroke="#f36924" stroke-width="2px"/><text text-anchor="middle" pointer-events="none" font-family="sans-serif" dy="1.5625" font-size="25" fill="#FFFFFF"/><text text-anchor="middle" pointer-events="none" font-family="sans-serif" dy="1.5625" font-size="25" fill="#FFFFFF"/><text text-anchor="middle" pointer-events="none" x="0" y="0" font-size="10px" fill="#FFFFFF" font-family="sans-serif"> Hugo</text><text text-anchor="middle" pointer-events="none" x="0" y="10" font-size="10px" fill="#FFFFFF" font-family="sans-serif"> Weaving</text></g><g class="node" transform="translate(197.78241507081083,206.33437069352541)"><circle class="outline" cx="0" cy="0" r="25" fill="#57C7E3" stroke="#23b3d7" stroke-width="2px"/><text text-anchor="middle" pointer-events="none" font-family="sans-serif" dy="1.5625" font-size="25" fill="#2A2C34"/><text text-anchor="middle" pointer-events="none" font-family="sans-serif" dy="1.5625" font-size="25" fill="#2A2C34"/><text text-anchor="middle" pointer-events="none" x="0" y="0" font-size="10px" fill="#2A2C34" font-family="sans-serif"> Cloud</text><text text-anchor="middle" pointer-events="none" x="0" y="10" font-size="10px" fill="#2A2C34" font-family="sans-serif"> Atlas</text></g><g class="node" transform="translate(199.08853041086851,41.240032740289536)"><circle class="outline" cx="0" cy="0" r="25" fill="#57C7E3" stroke="#23b3d7" stroke-width="2px"/><text text-anchor="middle" pointer-events="none" font-family="sans-serif" dy="1.5625" font-size="25" fill="#2A2C34"/><text text-anchor="middle" pointer-events="none" font-family="sans-serif" dy="1.5625" font-size="25" fill="#2A2C34"/><text text-anchor="middle" pointer-events="none" x="0" y="0" font-size="10px" fill="#2A2C34" font-family="sans-serif"> V for</text><text text-anchor="middle" pointer-events="none" x="0" y="10" font-size="10px" fill="#2A2C34" font-family="sans-serif"> Vendetta</text></g><g class="node" transform="translate(94.19381601323114,17.69994783007511)"><circle class="outline" cx="0" cy="0" r="25" fill="#57C7E3" stroke="#23b3d7" stroke-width="2px"/><text text-anchor="middle" pointer-events="none" font-family="sans-serif" dy="1.5625" font-size="25" fill="#2A2C34"/><text text-anchor="middle" pointer-events="none" font-family="sans-serif" dy="1.5625" font-size="25" fill="#2A2C34"/><text text-anchor="middle" pointer-events="none" font-family="sans-serif" dy="1.5625" font-size="25" fill="#2A2C34"/><text text-anchor="middle" pointer-events="none" x="0" y="-5" font-size="10px" fill="#2A2C34" font-family="sans-serif"> The</text><text text-anchor="middle" pointer-events="none" x="0" y="5" font-size="10px" fill="#2A2C34" font-family="sans-serif"> Matrix</text><text text-anchor="middle" pointer-events="none" x="0" y="15" font-size="10px" fill="#2A2C34" font-family="sans-serif"> Revol…</text></g><g class="node" transform="translate(19.23527147041489,86.5897670545961)"><circle class="outline" cx="0" cy="0" r="25" fill="#57C7E3" stroke="#23b3d7" stroke-width="2px"/><text text-anchor="middle" pointer-events="none" font-family="sans-serif" dy="1.5625" font-size="25" fill="#2A2C34"/><text text-anchor="middle" pointer-events="none" font-family="sans-serif" dy="1.5625" font-size="25" fill="#2A2C34"/><text text-anchor="middle" pointer-events="none" font-family="sans-serif" dy="1.5625" font-size="25" fill="#2A2C34"/><text text-anchor="middle" pointer-events="none" x="0" y="-5" font-size="10px" fill="#2A2C34" font-family="sans-serif"> The</text><text text-anchor="middle" pointer-events="none" x="0" y="5" font-size="10px" fill="#2A2C34" font-family="sans-serif"> Matrix</text><text text-anchor="middle" pointer-events="none" x="0" y="15" font-size="10px" fill="#2A2C34" font-family="sans-serif"> Reloa…</text></g><g class="node" transform="translate(33.74978149754284,192.9799832550369)"><circle class="outline" cx="0" cy="0" r="25" fill="#57C7E3" stroke="#23b3d7" stroke-width="2px"/><text text-anchor="middle" pointer-events="none" font-family="sans-serif" dy="1.5625" font-size="25" fill="#2A2C34"/><text text-anchor="middle" pointer-events="none" font-family="sans-serif" dy="1.5625" font-size="25" fill="#2A2C34"/><text text-anchor="middle" pointer-events="none" x="0" y="0" font-size="10px" fill="#2A2C34" font-family="sans-serif"> The</text><text text-anchor="middle" pointer-events="none" x="0" y="10" font-size="10px" fill="#2A2C34" font-family="sans-serif"> Matrix</text></g></g></svg>