<svg xmlns="http://www.w3.org/2000/svg" width="251.15846252441406" height="255.53128051757812" viewBox="-29.017147064208984 -20.78171157836914 251.15846252441406 255.53128051757812"><title>Neo4j Graph Visualization</title><desc>Created using Neo4j (http://www.neo4j.com/)</desc><g class="layer relationships"><g class="relationship" transform="translate(148.4069173174775 205.749552169943) rotate(234.71860871637693)"><path class="outline" fill="#A5ABB6" stroke="none" d="M 25 0.5 L 29.693558665594857 0.5 L 29.693558665594857 -0.5 L 25 -0.5 Z M 75.25605866559485 0.5 L 79.94961733118971 0.5 L 79.94961733118971 3.5 L 86.94961733118971 0 L 79.94961733118971 -3.5 L 79.94961733118971 -0.5 L 75.25605866559485 -0.5 Z"/><text text-anchor="middle" pointer-events="none" font-size="8px" fill="#000000" x="52.47480866559486" y="3" transform="rotate(180 52.47480866559486 0)" font-family="sans-serif">ACTED_IN</text></g><g class="relationship" transform="translate(193.14130997207275 91.1017073874722) rotate(527.9960994861981)"><path class="outline" fill="#A5ABB6" stroke="none" d="M 25 0.5 L 29.639368770236395 0.5 L 29.639368770236395 -0.5 L 25 -0.5 Z M 75.20186877023639 0.5 L 79.84123754047279 0.5 L 79.84123754047279 3.5 L 86.84123754047279 0 L 79.84123754047279 -3.5 L 79.84123754047279 -0.5 L 75.20186877023639 -0.5 Z"/><text text-anchor="middle" pointer-events="none" font-size="8px" fill="#000000" x="52.420618770236395" y="3" transform="rotate(180 52.420618770236395 0)" font-family="sans-serif">ACTED_IN</text></g><g class="relationship" transform="translate(118.91384127769187 8.21828935766863) rotate(468.3313421927057)"><path class="outline" fill="#A5ABB6" stroke="none" d="M 25 0.5 L 29.627923846164087 0.5 L 29.627923846164087 -0.5 L 25 -0.5 Z M 75.1904238461641 0.5 L 79.81834769232817 0.5 L 79.81834769232817 3.5 L 86.81834769232817 0 L 79.81834769232817 -3.5 L 79.81834769232817 -0.5 L 75.1904238461641 -0.5 Z"/><text text-anchor="middle" pointer-events="none" font-size="8px" fill="#000000" x="52.40917384616409" y="3" transform="rotate(180 52.40917384616409 0)" font-family="sans-serif">ACTED_IN</text></g><g class="relationship" transform="translate(-0.017147563916804637 40.160666488446495) rotate(401.5362468632778)"><path class="outline" fill="#A5ABB6" stroke="none" d="M 25 0.5 L 29.669806563572806 0.5 L 29.669806563572806 -0.5 L 25 -0.5 Z M 75.2323065635728 0.5 L 79.90211312714561 0.5 L 79.90211312714561 3.5 L 86.90211312714561 0 L 79.90211312714561 -3.5 L 79.90211312714561 -0.5 L 75.2323065635728 -0.5 Z"/><text text-anchor="middle" pointer-events="none" font-size="8px" fill="#000000" x="52.451056563572806" y="3" font-family="sans-serif">ACTED_IN</text></g><g class="relationship" transform="translate(2.2716578128388774 187.55267755155396) rotate(318.06573982905496)"><path class="outline" fill="#A5ABB6" stroke="none" d="M 25 0.5 L 28.47925150487692 0.5 L 28.47925150487692 -0.5 L 25 -0.5 Z M 74.04175150487691 0.5 L 77.52100300975384 0.5 L 77.52100300975384 3.5 L 84.52100300975384 0 L 77.52100300975384 -3.5 L 77.52100300975384 -0.5 L 74.04175150487691 -0.5 Z"/><text text-anchor="middle" pointer-events="none" font-size="8px" fill="#000000" x="51.26050150487692" y="3" font-family="sans-serif">ACTED_IN</text></g></g><g class="layer nodes"><g class="node" transform="translate(148.4069173174775,205.749552169943)"><circle class="outline" cx="0" cy="0" r="25" fill="#F79767" stroke="#f36924" stroke-width="2px"/><text text-anchor="middle" pointer-events="none" font-family="sans-serif" dy="1.5625" font-size="25" fill="#FFFFFF"/><text text-anchor="middle" pointer-events="none" font-family="sans-serif" dy="1.5625" font-size="25" fill="#FFFFFF"/><text text-anchor="middle" pointer-events="none" x="0" y="0" font-size="10px" fill="#FFFFFF" font-family="sans-serif"> Emil</text><text text-anchor="middle" pointer-events="none" x="0" y="10" font-size="10px" fill="#FFFFFF" font-family="sans-serif"> Eifrem</text></g><g class="node" transform="translate(83.74565505914359,114.3622555485921)"><circle class="outline" cx="0" cy="0" r="25" fill="#57C7E3" stroke="#23b3d7" stroke-width="2px"/><text text-anchor="middle" pointer-events="none" font-family="sans-serif" dy="1.5625" font-size="25" fill="#2A2C34"/><text text-anchor="middle" pointer-events="none" font-family="sans-serif" dy="1.5625" font-size="25" fill="#2A2C34"/><text text-anchor="middle" pointer-events="none" x="0" y="0" font-size="10px" fill="#2A2C34" font-family="sans-serif"> The</text><text text-anchor="middle" pointer-events="none" x="0" y="10" font-size="10px" fill="#2A2C34" font-family="sans-serif"> Matrix</text></g><g class="node" transform="translate(193.14130997207275,91.1017073874722)"><circle class="outline" cx="0" cy="0" r="25" fill="#F79767" stroke="#f36924" stroke-width="2px"/><text text-anchor="middle" pointer-events="none" font-family="sans-serif" dy="1.5625" font-size="25" fill="#FFFFFF"/><text text-anchor="middle" pointer-events="none" font-family="sans-serif" dy="1.5625" font-size="25" fill="#FFFFFF"/><text text-anchor="middle" pointer-events="none" x="0" y="0" font-size="10px" fill="#FFFFFF" font-family="sans-serif"> Hugo</text><text text-anchor="middle" pointer-events="none" x="0" y="10" font-size="10px" fill="#FFFFFF" font-family="sans-serif"> Weaving</text></g><g class="node" transform="translate(118.91384127769187,8.21828935766863)"><circle class="outline" cx="0" cy="0" r="25" fill="#F79767" stroke="#f36924" stroke-width="2px"/><text text-anchor="middle" pointer-events="none" font-family="sans-serif" dy="1.5625" font-size="25" fill="#FFFFFF"/><text text-anchor="middle" pointer-events="none" font-family="sans-serif" dy="1.5625" font-size="25" fill="#FFFFFF"/><text text-anchor="middle" pointer-events="none" x="0" y="0" font-size="10px" fill="#FFFFFF" font-family="sans-serif"> Laurence</text><text text-anchor="middle" pointer-events="none" x="0" y="10" font-size="10px" fill="#FFFFFF" font-family="sans-serif"> Fishbur…</text></g><g class="node" transform="translate(-0.017147563916804637,40.160666488446495)"><circle class="outline" cx="0" cy="0" r="25" fill="#F79767" stroke="#f36924" stroke-width="2px"/><text text-anchor="middle" pointer-events="none" font-family="sans-serif" dy="1.5625" font-size="25" fill="#FFFFFF"/><text text-anchor="middle" pointer-events="none" x="0" y="5" font-size="10px" fill="#FFFFFF" font-family="sans-serif"> Carrie-A…</text></g><g class="node" transform="translate(2.2716578128388774,187.55267755155396)"><circle class="outline" cx="0" cy="0" r="25" fill="#F79767" stroke="#f36924" stroke-width="2px"/><text text-anchor="middle" pointer-events="none" font-family="sans-serif" dy="1.5625" font-size="25" fill="#FFFFFF"/><text text-anchor="middle" pointer-events="none" font-family="sans-serif" dy="1.5625" font-size="25" fill="#FFFFFF"/><text text-anchor="middle" pointer-events="none" x="0" y="0" font-size="10px" fill="#FFFFFF" font-family="sans-serif"> Keanu</text><text text-anchor="middle" pointer-events="none" x="0" y="10" font-size="10px" fill="#FFFFFF" font-family="sans-serif"> Reeves</text></g></g></svg>