<svg xmlns="http://www.w3.org/2000/svg" width="403.66064453125" height="401.0526123046875" viewBox="-95.84369659423828 -88.86552429199219 403.66064453125 401.0526123046875"><title>Neo4j Graph Visualization</title><desc>Created using Neo4j (http://www.neo4j.com/)</desc><g class="layer relationships"><g class="relationship" transform="translate(278.81691444575625 99.16523470513624) rotate(461.4054388166254)"><path class="outline" fill="#A5ABB6" stroke="none" d="M 25 0.5 L 33.13807781612122 0.5 L 33.13807781612122 -0.5 L 25 -0.5 Z M 67.58339031612121 0.5 L 75.72146813224244 0.5 L 75.72146813224244 3.5 L 82.72146813224244 0 L 75.72146813224244 -3.5 L 75.72146813224244 -0.5 L 67.58339031612121 -0.5 Z"/><text text-anchor="middle" pointer-events="none" font-size="8px" fill="#000000" x="50.36073406612122" y="3" transform="rotate(180 50.36073406612122 0)" font-family="sans-serif">ORIGIN</text></g><g class="relationship" transform="translate(278.81691444575625 99.16523470513624) rotate(246.9919521562382)"><path class="outline" fill="#A5ABB6" stroke="none" d="M 25 0.5 L 26.37593988337583 0.5 L 26.37593988337583 -0.5 L 25 -0.5 Z M 75.04781488337582 0.5 L 76.42375476675166 0.5 L 76.42375476675166 3.5 L 83.42375476675166 0 L 76.42375476675166 -3.5 L 76.42375476675166 -0.5 L 75.04781488337582 -0.5 Z"/><text text-anchor="middle" pointer-events="none" font-size="8px" fill="#000000" x="50.71187738337583" y="3" transform="rotate(180 50.71187738337583 0)" font-family="sans-serif">DESTINA…</text></g><g class="relationship" transform="translate(144.5042317711865 -59.865523586106875) rotate(392.79322466294036)"><path class="outline" fill="#A5ABB6" stroke="none" d="M 25 0.5 L 33.958985281863555 0.5 L 33.958985281863555 -0.5 L 25 -0.5 Z M 68.40429778186356 0.5 L 77.36328306372711 0.5 L 77.36328306372711 3.5 L 84.36328306372711 0 L 77.36328306372711 -3.5 L 77.36328306372711 -0.5 L 68.40429778186356 -0.5 Z"/><text text-anchor="middle" pointer-events="none" font-size="8px" fill="#000000" x="51.181641531863555" y="3" font-family="sans-serif">ORIGIN</text></g><g class="relationship" transform="translate(144.5042317711865 -59.865523586106875) rotate(538.7589528964453)"><path class="outline" fill="#A5ABB6" stroke="none" d="M 25 0.5 L 27.01431802148243 0.5 L 27.01431802148243 -0.5 L 25 -0.5 Z M 75.68619302148244 0.5 L 77.70051104296486 0.5 L 77.70051104296486 3.5 L 84.70051104296486 0 L 77.70051104296486 -3.5 L 77.70051104296486 -0.5 L 75.68619302148244 -0.5 Z"/><text text-anchor="middle" pointer-events="none" font-size="8px" fill="#000000" x="51.35025552148243" y="3" transform="rotate(180 51.35025552148243 0)" font-family="sans-serif">DESTINA…</text></g><g class="relationship" transform="translate(-47.643103681322856 13.243388192436436) rotate(319.3818163674308)"><path class="outline" fill="#A5ABB6" stroke="none" d="M 25 0.5 L 26.48917706509863 0.5 L 26.48917706509863 -0.5 L 25 -0.5 Z M 75.16105206509863 0.5 L 76.65022913019726 0.5 L 76.65022913019726 3.5 L 83.65022913019726 0 L 76.65022913019726 -3.5 L 76.65022913019726 -0.5 L 75.16105206509863 -0.5 Z"/><text text-anchor="middle" pointer-events="none" font-size="8px" fill="#000000" x="50.82511456509863" y="3" font-family="sans-serif">DESTINA…</text></g><g class="relationship" transform="translate(-47.643103681322856 13.243388192436436) rotate(460.11726519240676)"><path class="outline" fill="#A5ABB6" stroke="none" d="M 25 0.5 L 33.928998993849525 0.5 L 33.928998993849525 -0.5 L 25 -0.5 Z M 68.37431149384952 0.5 L 77.30331048769905 0.5 L 77.30331048769905 3.5 L 84.30331048769905 0 L 77.30331048769905 -3.5 L 77.30331048769905 -0.5 L 68.37431149384952 -0.5 Z"/><text text-anchor="middle" pointer-events="none" font-size="8px" fill="#000000" x="51.151655243849525" y="3" transform="rotate(180 51.151655243849525 0)" font-family="sans-serif">ORIGIN</text></g><g class="relationship" transform="translate(-32.282283160442965 223.06840117080287) rotate(251.31941578876456)"><path class="outline" fill="#A5ABB6" stroke="none" d="M 25 0.5 L 33.2303158945839 0.5 L 33.2303158945839 -0.5 L 25 -0.5 Z M 67.6756283945839 0.5 L 75.9059442891678 0.5 L 75.9059442891678 3.5 L 82.9059442891678 0 L 75.9059442891678 -3.5 L 75.9059442891678 -0.5 L 67.6756283945839 -0.5 Z"/><text text-anchor="middle" pointer-events="none" font-size="8px" fill="#000000" x="50.4529721445839" y="3" transform="rotate(180 50.4529721445839 0)" font-family="sans-serif">ORIGIN</text></g><g class="relationship" transform="translate(-32.282283160442965 223.06840117080287) rotate(394.0451597532231)"><path class="outline" fill="#A5ABB6" stroke="none" d="M 25 0.5 L 25.856235035739694 0.5 L 25.856235035739694 -0.5 L 25 -0.5 Z M 74.5281100357397 0.5 L 75.38434507147939 0.5 L 75.38434507147939 3.5 L 82.38434507147939 0 L 75.38434507147939 -3.5 L 75.38434507147939 -0.5 L 74.5281100357397 -0.5 Z"/><text text-anchor="middle" pointer-events="none" font-size="8px" fill="#000000" x="50.192172535739694" y="3" font-family="sans-serif">DESTINA…</text></g></g><g class="layer nodes"><g class="node" transform="translate(56.69601649963961,283.18711502955995)"><circle class="outline" cx="0" cy="0" r="25" fill="#ECB5C9" stroke="#da7298" stroke-width="2px"/><text text-anchor="middle" pointer-events="none" font-family="sans-serif" dy="1.5625" font-size="25" fill="#2A2C34"/><text text-anchor="middle" pointer-events="none" x="0" y="5" font-size="10px" fill="#2A2C34" font-family="sans-serif"> DAY</text></g><g class="node" transform="translate(257.514951897712,204.75946318457278)"><circle class="outline" cx="0" cy="0" r="25" fill="#ECB5C9" stroke="#da7298" stroke-width="2px"/><text text-anchor="middle" pointer-events="none" font-family="sans-serif" dy="1.5625" font-size="25" fill="#2A2C34"/><text text-anchor="middle" pointer-events="none" x="0" y="5" font-size="10px" fill="#2A2C34" font-family="sans-serif"> LAX</text></g><g class="node" transform="translate(278.81691444575625,99.16523470513624)"><circle class="outline" cx="0" cy="0" r="25" fill="#4C8EDA" stroke="#2870c2" stroke-width="2px"/><text text-anchor="middle" pointer-events="none" font-family="sans-serif" dy="1.5625" font-size="25" fill="#FFFFFF"/><text text-anchor="middle" pointer-events="none" x="0" y="5" font-size="10px" fill="#FFFFFF" font-family="sans-serif"> 11/29/20…</text></g><g class="node" transform="translate(236.4383601187321,-0.63340622184314)"><circle class="outline" cx="0" cy="0" r="25" fill="#ECB5C9" stroke="#da7298" stroke-width="2px"/><text text-anchor="middle" pointer-events="none" font-family="sans-serif" dy="1.5625" font-size="25" fill="#2A2C34"/><text text-anchor="middle" pointer-events="none" x="0" y="5" font-size="10px" fill="#2A2C34" font-family="sans-serif"> LAS</text></g><g class="node" transform="translate(144.5042317711865,-59.865523586106875)"><circle class="outline" cx="0" cy="0" r="25" fill="#4C8EDA" stroke="#2870c2" stroke-width="2px"/><text text-anchor="middle" pointer-events="none" font-family="sans-serif" dy="1.5625" font-size="25" fill="#FFFFFF"/><text text-anchor="middle" pointer-events="none" x="0" y="5" font-size="10px" fill="#FFFFFF" font-family="sans-serif"> 11/29/20…</text></g><g class="node" transform="translate(34.829453877596094,-57.489557029257575)"><circle class="outline" cx="0" cy="0" r="25" fill="#ECB5C9" stroke="#da7298" stroke-width="2px"/><text text-anchor="middle" pointer-events="none" font-family="sans-serif" dy="1.5625" font-size="25" fill="#2A2C34"/><text text-anchor="middle" pointer-events="none" x="0" y="5" font-size="10px" fill="#2A2C34" font-family="sans-serif"> DEN</text></g><g class="node" transform="translate(-47.643103681322856,13.243388192436436)"><circle class="outline" cx="0" cy="0" r="25" fill="#4C8EDA" stroke="#2870c2" stroke-width="2px"/><text text-anchor="middle" pointer-events="none" font-family="sans-serif" dy="1.5625" font-size="25" fill="#FFFFFF"/><text text-anchor="middle" pointer-events="none" x="0" y="5" font-size="10px" fill="#FFFFFF" font-family="sans-serif"> 11/29/20…</text></g><g class="node" transform="translate(-66.84369295865977,120.84706403565917)"><circle class="outline" cx="0" cy="0" r="25" fill="#ECB5C9" stroke="#da7298" stroke-width="2px"/><text text-anchor="middle" pointer-events="none" font-family="sans-serif" dy="1.5625" font-size="25" fill="#2A2C34"/><text text-anchor="middle" pointer-events="none" x="0" y="5" font-size="10px" fill="#2A2C34" font-family="sans-serif"> MSP</text></g><g class="node" transform="translate(-32.282283160442965,223.06840117080287)"><circle class="outline" cx="0" cy="0" r="25" fill="#4C8EDA" stroke="#2870c2" stroke-width="2px"/><text text-anchor="middle" pointer-events="none" font-family="sans-serif" dy="1.5625" font-size="25" fill="#FFFFFF"/><text text-anchor="middle" pointer-events="none" x="0" y="5" font-size="10px" fill="#FFFFFF" font-family="sans-serif"> 11/23/20…</text></g></g></svg>