<svg xmlns="http://www.w3.org/2000/svg" width="683.7291870117188" height="686.4585571289062" viewBox="-246.52610778808594 -264.7913818359375 683.7291870117188 686.4585571289062"><title>Neo4j Graph Visualization</title><desc>Created using Neo4j (http://www.neo4j.com/)</desc><g class="layer relationships"><g class="relationship" transform="translate(408.20304827225635 274.29530993989596) rotate(261.5883769830908)"><path class="outline" fill="#A5ABB6" stroke="none" d="M 24.018736134675446,-6.953439040707552 L 24.277555179777966,-5.987513214418485 A 103.59419639639096 103.59419639639096 0 0 1 38.502784485595384,-8.74988739879251 L 38.38128229607604,-9.742478562334682 A 104.59419639639096 104.59419639639096 0 0 0 24.018736134675446,-6.953439040707552 Z M 60.45469448935906,-10.097302514803431 L 60.365158084445994,-9.101318964640456 A 103.59419639639096 103.59419639639096 0 0 1 74.6718236347637,-6.797587042533297 L 73.9889055287549,-3.8763505131701987 L 81.60186188761239,-5.690984216739957 L 75.5823811094421,-10.692569081684095 L 74.8994630034333,-7.771332552320996 A 104.59419639639096 104.59419639639096 0 0 0 60.45469448935906,-10.097302514803431"/><text text-anchor="middle" pointer-events="none" font-size="8px" fill="#000000" x="49.416637101346765" y="-7.0039536668131035" transform="rotate(180 49.416637101346765 -10.003953666813103)" font-family="sans-serif">road</text></g><g class="relationship" transform="translate(392.7049476070958 169.48950013857217) rotate(227.087893985326)"><path class="outline" fill="#A5ABB6" stroke="none" d="M 21.40063509461097,-12.933012701892217 L 21.90063509461097,-12.06698729810778 A 62.03577540075414 62.03577540075414 0 0 1 28.658504976891283,-15.4378671975239 L 28.267440020237224,-16.358230277877063 A 63.03577540075414 63.03577540075414 0 0 0 21.40063509461097,-12.933012701892217 Z M 74.01285046872849,-17.74393085181623 L 73.67820990089805,-16.801585007467075 A 62.03577540075414 62.03577540075414 0 0 1 80.62772069950941,-13.845923270714541 L 79.28772626603042,-11.161819152345567 L 87.11396271461686,-11.166620278991699 L 82.41437994414808,-17.424728761873173 L 81.07438551066909,-14.7406246435042 A 63.03577540075414 63.03577540075414 0 0 0 74.01285046872849,-17.74393085181623"/><text text-anchor="middle" pointer-events="none" font-size="8px" fill="#000000" x="51.02508409739875" y="-17.849534212790324" transform="rotate(180 51.02508409739875 -20.849534212790324)" font-family="sans-serif">twowheeler</text></g><g class="relationship" transform="translate(318.1616640539983 89.3053553840964) rotate(492.4511842698305)"><path class="outline" fill="#A5ABB6" stroke="none" d="M 21.40063509461097,12.933012701892217 L 21.90063509461097,12.06698729810778 A 80.01906755269087 80.01906755269087 0 0 0 48.92544265875134,21.72696312867967 L 48.76317225734164,22.71370945718884 A 81.01906755269087 81.01906755269087 0 0 1 21.40063509461097,12.933012701892217 Z M 70.83503632885322,23.294438110764347 L 70.72487871130113,22.30052398001901 A 80.01906755269087 80.01906755269087 0 0 0 98.22026779469154,14.075018762767789 L 96.858963544308,11.401659314828226 L 104.68499054828109,11.344202086529464 L 100.03534012853625,17.639498026687203 L 98.67403587815271,14.96613857874764 A 81.01906755269087 81.01906755269087 0 0 1 70.83503632885322,23.294438110764347"/><text text-anchor="middle" pointer-events="none" font-size="8px" fill="#000000" x="59.79237977001279" y="26.259654008158847" transform="rotate(180 59.79237977001279 23.259654008158847)" font-family="sans-serif">road</text></g><g class="relationship" transform="translate(232.4664977988117 182.98533340112763) rotate(466.73871106105145)"><path class="outline" fill="#A5ABB6" stroke="none" d="M 25 0.5 L 59.99848229710831 0.5 L 59.99848229710831 -0.5 L 25 -0.5 Z M 79.33441979710831 0.5 L 114.33290209421662 0.5 L 114.33290209421662 3.5 L 121.33290209421662 0 L 114.33290209421662 -3.5 L 114.33290209421662 -0.5 L 79.33441979710831 -0.5 Z"/><text text-anchor="middle" pointer-events="none" font-size="8px" fill="#000000" x="69.66645104710831" y="3" transform="rotate(180 69.66645104710831 0)" font-family="sans-serif">trek</text></g><g class="relationship" transform="translate(408.20304827225635 274.29530993989596) rotate(261.5883769830908)"><path class="outline" fill="#A5ABB6" stroke="none" d="M 24.018736134675446,6.953439040707552 L 24.277555179777966,5.987513214418485 A 103.59419639639096 103.59419639639096 0 0 0 39.8253873907866,8.903165830241761 L 39.716652353783495,9.897236598209489 A 104.59419639639096 104.59419639639096 0 0 1 24.018736134675446,6.953439040707552 Z M 59.11504026437988,10.209060280460747 L 59.038311971877775,9.212008241131954 A 103.59419639639096 103.59419639639096 0 0 0 74.6718236347637,6.797587042533297 L 73.9889055287549,3.8763505131701987 L 81.60186188761239,5.690984216739957 L 75.5823811094421,10.692569081684095 L 74.8994630034333,7.771332552320996 A 104.59419639639096 104.59419639639096 0 0 1 59.11504026437988,10.209060280460747"/><text text-anchor="middle" pointer-events="none" font-size="8px" fill="#000000" x="49.4166371013468" y="13.003953666813103" transform="rotate(180 49.4166371013468 10.003953666813103)" font-family="sans-serif">trek</text></g><g class="relationship" transform="translate(392.7049476070958 169.48950013857217) rotate(227.087893985326)"><path class="outline" fill="#A5ABB6" stroke="none" d="M 25 0.5 L 40.23488914217917 0.5 L 40.23488914217917 -0.5 L 25 -0.5 Z M 62.24660789217917 0.5 L 77.48149703435834 0.5 L 77.48149703435834 3.5 L 84.48149703435834 0 L 77.48149703435834 -3.5 L 77.48149703435834 -0.5 L 62.24660789217917 -0.5 Z"/><text text-anchor="middle" pointer-events="none" font-size="8px" fill="#000000" x="51.24074851717917" y="3" transform="rotate(180 51.24074851717917 0)" font-family="sans-serif">road</text></g><g class="relationship" transform="translate(392.7049476070958 169.48950013857217) rotate(227.087893985326)"><path class="outline" fill="#A5ABB6" stroke="none" d="M 21.40063509461097,12.933012701892217 L 21.90063509461097,12.06698729810778 A 62.03577540075414 62.03577540075414 0 0 0 41.514493653569076,19.32099616505863 L 41.33066377366916,20.303954239065853 A 63.03577540075414 63.03577540075414 0 0 1 21.40063509461097,12.933012701892217 Z M 60.73475258002023,20.891734668449104 L 60.610755853790714,19.899452041429782 A 62.03577540075414 62.03577540075414 0 0 0 80.62772069950941,13.845923270714541 L 79.28772626603042,11.161819152345567 L 87.11396271461686,11.166620278991699 L 82.41437994414808,17.424728761873173 L 81.07438551066909,14.7406246435042 A 63.03577540075414 63.03577540075414 0 0 1 60.73475258002023,20.891734668449104"/><text text-anchor="middle" pointer-events="none" font-size="8px" fill="#000000" x="51.025084097398754" y="23.849534212790324" transform="rotate(180 51.025084097398754 20.849534212790324)" font-family="sans-serif">trek</text></g><g class="relationship" transform="translate(318.1616640539983 89.3053553840964) rotate(492.4511842698305)"><path class="outline" fill="#A5ABB6" stroke="none" d="M 25 0.5 L 36.74907109888872 0.5 L 36.74907109888872 -0.5 L 25 -0.5 Z M 83.21391484888872 0.5 L 94.96298594777744 0.5 L 94.96298594777744 3.5 L 101.96298594777744 0 L 94.96298594777744 -3.5 L 94.96298594777744 -0.5 L 83.21391484888872 -0.5 Z"/><text text-anchor="middle" pointer-events="none" font-size="8px" fill="#000000" x="59.98149297388872" y="3" transform="rotate(180 59.98149297388872 0)" font-family="sans-serif">twowheeler</text></g><g class="relationship" transform="translate(318.1616640539983 89.3053553840964) rotate(492.4511842698305)"><path class="outline" fill="#A5ABB6" stroke="none" d="M 21.40063509461097,-12.933012701892217 L 21.90063509461097,-12.06698729810778 A 80.01906755269087 80.01906755269087 0 0 1 50.23913555804631,-21.931805717361442 L 50.09328240491846,-22.92111196808598 A 81.01906755269087 81.01906755269087 0 0 0 21.40063509461097,-12.933012701892217 Z M 69.4958601615029,-23.431609532766913 L 69.40223169206128,-22.4360023262291 A 80.01906755269087 80.01906755269087 0 0 1 98.22026779469154,-14.075018762767789 L 96.858963544308,-11.401659314828226 L 104.68499054828109,-11.344202086529464 L 100.03534012853625,-17.639498026687203 L 98.67403587815271,-14.96613857874764 A 81.01906755269087 81.01906755269087 0 0 0 69.4958601615029,-23.431609532766913"/><text text-anchor="middle" pointer-events="none" font-size="8px" fill="#000000" x="59.792379770012786" y="-20.259654008158847" transform="rotate(180 59.792379770012786 -23.259654008158847)" font-family="sans-serif">trek</text></g><g class="relationship" transform="translate(84.29755468250333 -148.8692123899657) rotate(266.45234447923207)"><path class="outline" fill="#A5ABB6" stroke="none" d="M 24.018736134675446,-6.953439040707552 L 24.277555179777966,-5.987513214418485 A 65.59107690917483 65.59107690917483 0 0 1 30.44246809676386,-7.32533139820066 L 30.277639167504727,-8.311653568730804 A 66.59107690917483 66.59107690917483 0 0 0 24.018736134675446,-6.953439040707552 Z M 49.68683533367934,-8.6863374493431 L 49.560195840034794,-7.694388640860808 A 65.59107690917483 65.59107690917483 0 0 1 55.77214806346278,-6.595499046440148 L 55.10810775455414,-3.669913554928317 L 62.70918759514183,-5.5336692409053025 L 56.65753514200763,-10.496279701789256 L 55.99349483309899,-7.570694210277425 A 66.59107690917483 66.59107690917483 0 0 0 49.68683533367934,-8.6863374493431"/><text text-anchor="middle" pointer-events="none" font-size="8px" fill="#000000" x="39.978160766621265" y="-5.710163592723106" transform="rotate(180 39.978160766621265 -8.710163592723106)" font-family="sans-serif">trek</text></g><g class="relationship" transform="translate(78.90859534601658 -235.791388239354) rotate(413.53757470443253)"><path class="outline" fill="#A5ABB6" stroke="none" d="M 21.40063509461097,-12.933012701892217 L 21.90063509461097,-12.06698729810778 A 78.73962752818606 78.73962752818606 0 0 1 36.520598675874666,-18.62520775218607 L 36.20627346302082,-19.574523116311397 A 79.73962752818606 79.73962752818606 0 0 0 21.40063509461097,-12.933012701892217 Z M 82.28103535375729,-20.798270472669316 L 82.01754545361163,-19.833608318067377 A 78.73962752818606 78.73962752818606 0 0 1 96.96502425919465,-14.060700212232469 L 95.60505178328803,-11.386663027603873 L 103.43110643597913,-11.333103965888466 L 98.77832089373679,-17.626083125070597 L 97.41834841783017,-14.952045940442002 A 79.73962752818606 79.73962752818606 0 0 0 82.28103535375729,-20.798270472669316"/><text text-anchor="middle" pointer-events="none" font-size="8px" fill="#000000" x="59.16658340125885" y="-20.088162656336138" font-family="sans-serif">twowheeler</text></g><g class="relationship" transform="translate(153.62030379451005 -134.68570641057997) rotate(501.41162815251346)"><path class="outline" fill="#A5ABB6" stroke="none" d="M 21.40063509461097,12.933012701892217 L 21.90063509461097,12.06698729810778 A 86.17609663466676 86.17609663466676 0 0 0 51.928017836349746,22.616922066479503 L 51.77645996722319,23.60537045274245 A 87.17609663466676 87.17609663466676 0 0 1 21.40063509461097,12.933012701892217 Z M 73.84872065270169,24.16098673551008 L 73.74708686106855,23.166164855775676 A 86.17609663466676 86.17609663466676 0 0 0 104.26724171512004,14.140369288597759 L 102.8998593491134,11.470113595759692 L 110.72573539274329,11.394853050055287 L 106.09041820312888,17.700710212381846 L 104.72303583712224,15.03045451954378 A 87.17609663466676 87.17609663466676 0 0 1 73.84872065270169,24.16098673551008"/><text text-anchor="middle" pointer-events="none" font-size="8px" fill="#000000" x="62.80751128621015" y="27.084946504400136" transform="rotate(180 62.80751128621015 24.084946504400136)" font-family="sans-serif">road</text></g><g class="relationship" transform="translate(49.678544010907544 -51.744622120252394) rotate(485.4794155700879)"><path class="outline" fill="#A5ABB6" stroke="none" d="M 25 0.5 L 52.03000793186601 0.5 L 52.03000793186601 -0.5 L 25 -0.5 Z M 71.36594543186601 0.5 L 98.39595336373202 0.5 L 98.39595336373202 3.5 L 105.39595336373202 0 L 98.39595336373202 -3.5 L 98.39595336373202 -0.5 L 71.36594543186601 -0.5 Z"/><text text-anchor="middle" pointer-events="none" font-size="8px" fill="#000000" x="61.69797668186601" y="3" transform="rotate(180 61.69797668186601 0)" font-family="sans-serif">trek</text></g><g class="relationship" transform="translate(84.29755468250333 -148.8692123899657) rotate(266.45234447923207)"><path class="outline" fill="#A5ABB6" stroke="none" d="M 24.018736134675446,6.953439040707552 L 24.277555179777966,5.987513214418485 A 65.59107690917483 65.59107690917483 0 0 0 29.135164556830844,7.093236759056396 L 28.950404508865685,8.076020420233107 A 66.59107690917483 66.59107690917483 0 0 1 24.018736134675446,6.953439040707552 Z M 51.022175289613635,8.502103842612456 L 50.875482959794724,7.512921675176997 A 65.59107690917483 65.59107690917483 0 0 0 55.77214806346278,6.595499046440148 L 55.10810775455414,3.669913554928317 L 62.70918759514183,5.5336692409053025 L 56.65753514200763,10.496279701789256 L 55.99349483309899,7.570694210277425 A 66.59107690917483 66.59107690917483 0 0 1 51.022175289613635,8.502103842612456"/><text text-anchor="middle" pointer-events="none" font-size="8px" fill="#000000" x="39.97816076662125" y="11.710163592723106" transform="rotate(180 39.97816076662125 8.710163592723106)" font-family="sans-serif">road</text></g><g class="relationship" transform="translate(78.90859534601658 -235.791388239354) rotate(413.53757470443253)"><path class="outline" fill="#A5ABB6" stroke="none" d="M 25 0.5 L 48.35151544560872 0.5 L 48.35151544560872 -0.5 L 25 -0.5 Z M 70.36323419560873 0.5 L 93.71474964121744 0.5 L 93.71474964121744 3.5 L 100.71474964121744 0 L 93.71474964121744 -3.5 L 93.71474964121744 -0.5 L 70.36323419560873 -0.5 Z"/><text text-anchor="middle" pointer-events="none" font-size="8px" fill="#000000" x="59.35737482060872" y="3" font-family="sans-serif">road</text></g><g class="relationship" transform="translate(78.90859534601658 -235.791388239354) rotate(413.53757470443253)"><path class="outline" fill="#A5ABB6" stroke="none" d="M 21.40063509461097,12.933012701892217 L 21.90063509461097,12.06698729810778 A 78.73962752818606 78.73962752818606 0 0 0 49.615631781722016,21.748763634254104 L 49.46761460863074,22.737748425072482 A 79.73962752818606 79.73962752818606 0 0 1 21.40063509461097,12.933012701892217 Z M 68.8704787535166,23.25308920446453 L 68.77516817670049,22.257641619733434 A 78.73962752818606 78.73962752818606 0 0 0 96.96502425919465,14.060700212232469 L 95.60505178328803,11.386663027603873 L 103.43110643597913,11.333103965888466 L 98.77832089373679,17.626083125070597 L 97.41834841783017,14.952045940442002 A 79.73962752818606 79.73962752818606 0 0 1 68.8704787535166,23.25308920446453"/><text text-anchor="middle" pointer-events="none" font-size="8px" fill="#000000" x="59.166583401258876" y="26.088162656336138" font-family="sans-serif">trek</text></g><g class="relationship" transform="translate(153.62030379451005 -134.68570641057997) rotate(501.41162815251346)"><path class="outline" fill="#A5ABB6" stroke="none" d="M 25 0.5 L 53.32096433319691 0.5 L 53.32096433319691 -0.5 L 25 -0.5 Z M 72.65690183319691 0.5 L 100.97786616639382 0.5 L 100.97786616639382 3.5 L 107.97786616639382 0 L 100.97786616639382 -3.5 L 100.97786616639382 -0.5 L 72.65690183319691 -0.5 Z"/><text text-anchor="middle" pointer-events="none" font-size="8px" fill="#000000" x="62.98893308319691" y="3" transform="rotate(180 62.98893308319691 0)" font-family="sans-serif">trek</text></g><g class="relationship" transform="translate(153.62030379451005 -134.68570641057997) rotate(501.41162815251346)"><path class="outline" fill="#A5ABB6" stroke="none" d="M 21.40063509461097,-12.933012701892217 L 21.90063509461097,-12.06698729810778 A 86.17609663466676 86.17609663466676 0 0 1 40.081940942760355,-19.93462452234769 L 39.79291946880368,-20.891947136512798 A 87.17609663466676 87.17609663466676 0 0 0 21.40063509461097,-12.933012701892217 Z M 85.95360514216306,-22.053931808101538 L 85.713115804609,-21.08328002784107 A 86.17609663466676 86.17609663466676 0 0 1 104.26724171512004,-14.140369288597759 L 102.8998593491134,-11.470113595759692 L 110.72573539274329,-11.394853050055287 L 106.09041820312888,-17.700710212381846 L 104.72303583712224,-15.03045451954378 A 87.17609663466676 87.17609663466676 0 0 0 85.95360514216306,-22.053931808101538"/><text text-anchor="middle" pointer-events="none" font-size="8px" fill="#000000" x="62.80751128621015" y="-21.084946504400136" transform="rotate(180 62.80751128621015 -24.084946504400136)" font-family="sans-serif">twowheeler</text></g><g class="relationship" transform="translate(84.29755468250333 -148.8692123899657) rotate(183.87376367640513)"><path class="outline" fill="#A5ABB6" stroke="none" d="M 21.40063509461097,12.933012701892217 L 21.90063509461097,12.06698729810778 A 57.90244655969747 57.90244655969747 0 0 0 22.57021619955403,12.44765481632031 L 22.08178015142008,13.320254510844265 A 58.90244655969747 58.90244655969747 0 0 1 21.40063509461097,12.933012701892217 Z M 76.34312016903783,15.022786545893304 L 75.91034932022865,14.121282584492704 A 57.90244655969747 57.90244655969747 0 0 0 76.60247788523657,13.783340777343964 L 75.26830527039405,11.096338091486675 L 83.09451292137733,11.11810512368764 L 78.38137470502659,17.366011025153682 L 77.04720209018407,14.679008339296393 A 58.90244655969747 58.90244655969747 0 0 1 76.34312016903783,15.022786545893304"/><text text-anchor="middle" pointer-events="none" font-size="8px" fill="#000000" x="49.02029417893342" y="23.295717208871153" transform="rotate(180 49.02029417893342 20.295717208871153)" font-family="sans-serif">PublicTrans…</text></g><g class="relationship" transform="translate(-20.94764498039821 -155.99569497335128) rotate(415.8838339335264)"><path class="outline" fill="#A5ABB6" stroke="none" d="M 25 0.5 L 49.79302068484325 0.5 L 49.79302068484325 -0.5 L 25 -0.5 Z M 69.12895818484324 0.5 L 93.9219788696865 0.5 L 93.9219788696865 3.5 L 100.9219788696865 0 L 93.9219788696865 -3.5 L 93.9219788696865 -0.5 L 69.12895818484324 -0.5 Z"/><text text-anchor="middle" pointer-events="none" font-size="8px" fill="#000000" x="59.46098943484325" y="3" font-family="sans-serif">trek</text></g><g class="relationship" transform="translate(84.29755468250333 -148.8692123899657) rotate(183.87376367640513)"><path class="outline" fill="#A5ABB6" stroke="none" d="M 25 0.5 L 38.23724161009403 0.5 L 38.23724161009403 -0.5 L 25 -0.5 Z M 60.24896036009403 0.5 L 73.48620197018806 0.5 L 73.48620197018806 3.5 L 80.48620197018806 0 L 73.48620197018806 -3.5 L 73.48620197018806 -0.5 L 60.24896036009403 -0.5 Z"/><text text-anchor="middle" pointer-events="none" font-size="8px" fill="#000000" x="49.24310098509403" y="3" transform="rotate(180 49.24310098509403 0)" font-family="sans-serif">road</text></g><g class="relationship" transform="translate(84.29755468250333 -148.8692123899657) rotate(183.87376367640513)"><path class="outline" fill="#A5ABB6" stroke="none" d="M 21.40063509461097,-12.933012701892217 L 21.90063509461097,-12.06698729810778 A 57.90244655969747 57.90244655969747 0 0 1 39.52401191440436,-18.705562266901843 L 39.32837516443774,-19.686238697771117 A 58.90244655969747 58.90244655969747 0 0 0 21.40063509461097,-12.933012701892217 Z M 58.731357857853936,-20.295036777588486 L 58.597585834048296,-19.304024645651168 A 57.90244655969747 57.90244655969747 0 0 1 76.60247788523657,-13.783340777343964 L 75.26830527039405,-11.096338091486675 L 83.09451292137733,-11.11810512368764 L 78.38137470502659,-17.366011025153682 L 77.04720209018407,-14.679008339296393 A 58.90244655969747 58.90244655969747 0 0 0 58.731357857853936,-20.295036777588486"/><text text-anchor="middle" pointer-events="none" font-size="8px" fill="#000000" x="49.020294178933426" y="-17.295717208871153" transform="rotate(180 49.020294178933426 -20.295717208871153)" font-family="sans-serif">trek</text></g><g class="relationship" transform="translate(408.20304827225635 274.29530993989596) rotate(192.59547807117724)"><path class="outline" fill="#A5ABB6" stroke="none" d="M 21.40063509461097,12.933012701892217 L 21.90063509461097,12.06698729810778 A 64.12006913088709 64.12006913088709 0 0 0 42.52069740144954,19.62866399102942 L 42.34228255546344,20.61261934709583 A 65.12006913088709 65.12006913088709 0 0 1 21.40063509461097,12.933012701892217 Z M 61.7466225497145,21.190316145320992 L 61.62705951801669,20.197489533343237 A 64.12006913088709 64.12006913088709 0 0 0 82.66044784791958,13.875899598075007 L 81.31766491379888,11.19318940279968 L 89.14390212591546,11.189857784339242 L 84.45082509341385,17.452846525108775 L 83.10804215929315,14.77013632983345 A 65.12006913088709 65.12006913088709 0 0 1 61.7466225497145,21.190316145320992"/><text text-anchor="middle" pointer-events="none" font-size="8px" fill="#000000" x="52.037683664367385" y="24.128828896275806" transform="rotate(180 52.037683664367385 21.128828896275806)" font-family="sans-serif">trek</text></g><g class="relationship" transform="translate(299.3865852824801 249.98096569499864) rotate(180.55394209803507)"><path class="outline" fill="#A5ABB6" stroke="none" d="M 24.018736134675446,-6.953439040707552 L 24.277555179777966,-5.987513214418485 A 186.72125829409438 186.72125829409438 0 0 1 47.32497646853713,-10.630709392688544 L 47.1895896533763,-11.621502211738317 A 187.72125829409438 187.72125829409438 0 0 0 24.018736134675446,-6.953439040707552 Z M 93.65586175925256,-12.165792856269917 L 93.543720550533,-11.172100575275977 A 186.72125829409438 186.72125829409438 0 0 1 116.69358085466433,-7.070044175047644 L 115.98521467870232,-4.154873963764442 L 123.61370571031881,-5.903051466350145 L 117.63806908928036,-10.956937790091914 L 116.92970291331835,-8.041767578808711 A 187.72125829409438 187.72125829409438 0 0 0 93.65586175925256,-12.165792856269917"/><text text-anchor="middle" pointer-events="none" font-size="8px" fill="#000000" x="70.41167508409423" y="-9.837042803024644" transform="rotate(180 70.41167508409423 -12.837042803024644)" font-family="sans-serif">twowheeler</text></g><g class="relationship" transform="translate(151.48670702699124 248.5510083347856) rotate(484.43330314737625)"><path class="outline" fill="#A5ABB6" stroke="none" d="M 24.018736134675446,-6.953439040707552 L 24.277555179777966,-5.987513214418485 A 103.05932159436722 103.05932159436722 0 0 1 39.69205349740388,-8.882294259303379 L 39.582803633227044,-9.876308578705945 A 104.05932159436722 104.05932159436722 0 0 0 24.018736134675446,-6.953439040707552 Z M 58.981369561735264,-10.1888765425809 L 58.904201086533284,-9.191858475324835 A 103.05932159436722 103.05932159436722 0 0 1 74.4039601085789,-6.795197059848569 L 73.72126524812344,-3.873908349791359 L 81.33408290878829,-5.689123837128726 L 75.3142199225195,-10.690248673258182 L 74.63152506206404,-7.768959963200972 A 104.05932159436722 104.05932159436722 0 0 0 58.981369561735264,-10.1888765425809"/><text text-anchor="middle" pointer-events="none" font-size="8px" fill="#000000" x="49.282841632129845" y="-6.985733665606858" transform="rotate(180 49.282841632129845 -9.985733665606858)" font-family="sans-serif">trek</text></g><g class="relationship" transform="translate(91.73136336691243 335.7127628626958) rotate(352.7198769273299)"><path class="outline" fill="#A5ABB6" stroke="none" d="M 24.018736134675446,6.953439040707552 L 24.277555179777966,5.987513214418485 A 90.45287299849046 90.45287299849046 0 0 0 36.55831302336073,8.382228159424827 L 36.435263660706966,9.374628710790304 A 91.45287299849046 91.45287299849046 0 0 1 24.018736134675446,6.953439040707552 Z M 55.83807982266522,9.705780629709821 L 55.7489672758481,8.709759066690339 A 90.45287299849046 90.45287299849046 0 0 0 68.10429108547632,6.735513276574739 L 67.42717130986266,3.8129272967491827 L 75.03651166767156,5.642664796780466 L 69.0071174529612,10.632294583008814 L 68.32999767734754,7.709708603183259 A 91.45287299849046 91.45287299849046 0 0 1 55.83807982266522,9.705780629709821"/><text text-anchor="middle" pointer-events="none" font-size="8px" fill="#000000" x="46.13639573879333" y="12.556376200845094" font-family="sans-serif">trek</text></g><g class="relationship" transform="translate(408.20304827225635 274.29530993989596) rotate(192.59547807117724)"><path class="outline" fill="#A5ABB6" stroke="none" d="M 25 0.5 L 41.24405083493827 0.5 L 41.24405083493827 -0.5 L 25 -0.5 Z M 63.25576958493827 0.5 L 79.49982041987654 0.5 L 79.49982041987654 3.5 L 86.49982041987654 0 L 79.49982041987654 -3.5 L 79.49982041987654 -0.5 L 63.25576958493827 -0.5 Z"/><text text-anchor="middle" pointer-events="none" font-size="8px" fill="#000000" x="52.24991020993827" y="3" transform="rotate(180 52.24991020993827 0)" font-family="sans-serif">road</text></g><g class="relationship" transform="translate(408.20304827225635 274.29530993989596) rotate(192.59547807117724)"><path class="outline" fill="#A5ABB6" stroke="none" d="M 21.40063509461097,-12.933012701892217 L 21.90063509461097,-12.06698729810778 A 64.12006913088709 64.12006913088709 0 0 1 22.8057635790446,-12.579818638979532 L 22.319879728585644,-13.453842027604331 A 65.12006913088709 65.12006913088709 0 0 0 21.40063509461097,-12.933012701892217 Z M 82.15944131157426,-15.235357046612037 L 81.72641395107128,-14.33397626966157 A 64.12006913088709 64.12006913088709 0 0 1 82.66044784791958,-13.875899598075007 L 81.31766491379888,-11.19318940279968 L 89.14390212591546,-11.189857784339242 L 84.45082509341385,-17.452846525108775 L 83.10804215929315,-14.77013632983345 A 65.12006913088709 65.12006913088709 0 0 0 82.15944131157426,-15.235357046612037"/><text text-anchor="middle" pointer-events="none" font-size="8px" fill="#000000" x="52.03768366436739" y="-18.128828896275806" transform="rotate(180 52.03768366436739 -21.128828896275806)" font-family="sans-serif">PublicTransport</text></g><g class="relationship" transform="translate(299.3865852824801 249.98096569499864) rotate(180.55394209803507)"><path class="outline" fill="#A5ABB6" stroke="none" d="M 24.018736134675446,6.953439040707552 L 24.277555179777966,5.987513214418485 A 186.72125829409438 186.72125829409438 0 0 0 60.783243633611576,11.975305699977469 L 60.719933599038185,12.973299607535182 A 187.72125829409438 187.72125829409438 0 0 1 24.018736134675446,6.953439040707552 Z M 80.0975656274694,13.200282822418842 L 80.0576501019516,12.201079764565918 A 186.72125829409438 186.72125829409438 0 0 0 116.69358085466433,7.070044175047644 L 115.98521467870232,4.154873963764442 L 123.61370571031881,5.903051466350145 L 117.63806908928036,10.956937790091914 L 116.92970291331835,8.041767578808711 A 187.72125829409438 187.72125829409438 0 0 1 80.0975656274694,13.200282822418842"/><text text-anchor="middle" pointer-events="none" font-size="8px" fill="#000000" x="70.41167508409428" y="15.837042803024644" transform="rotate(180 70.41167508409428 12.837042803024644)" font-family="sans-serif">trek</text></g><g class="relationship" transform="translate(-20.94764498039821 -155.99569497335128) rotate(512.7995250337307)"><path class="outline" fill="#A5ABB6" stroke="none" d="M 24.018736134675446,-6.953439040707552 L 24.277555179777966,-5.987513214418485 A 154.40669583019329 154.40669583019329 0 0 1 39.172028413650345,-9.200153048304145 L 39.009671980831506,-10.186885225099019 A 155.40669583019329 155.40669583019329 0 0 0 24.018736134675446,-6.953439040707552 Z M 85.44595173438226,-10.795301750624446 L 85.30950328298755,-9.804654578260852 A 154.40669583019329 154.40669583019329 0 0 1 100.28303433692327,-6.983350731874853 L 99.58276511496072,-4.0662249175206 L 107.20637277407695,-5.83557684968794 L 101.21672663287333,-10.872851817680523 L 100.51645741091079,-7.95572600332627 A 155.40669583019329 155.40669583019329 0 0 0 85.44595173438226,-10.795301750624446"/><text text-anchor="middle" pointer-events="none" font-size="8px" fill="#000000" x="62.21150742777148" y="-8.735499307386618" transform="rotate(180 62.21150742777148 -11.735499307386618)" font-family="sans-serif">twowheeler</text></g><g class="relationship" transform="translate(-137.9194120864945 -95.87914652237436) rotate(440.70229845654984)"><path class="outline" fill="#A5ABB6" stroke="none" d="M 24.018736134675446,-6.953439040707552 L 24.277555179777966,-5.987513214418485 A 103.29003846641743 103.29003846641743 0 0 1 39.749563276007365,-8.891300199723517 L 39.640536101698466,-9.885338969220072 A 104.29003846641743 104.29003846641743 0 0 0 24.018736134675446,-6.953439040707552 Z M 59.0390251968847,-10.197585470582695 L 58.96204717471999,-9.20055268069882 A 103.29003846641743 103.29003846641743 0 0 1 74.51949691935108,-6.796229318691762 L 73.83670563674151,-3.8749631438298446 L 81.44958320779716,-5.689927355079753 L 75.42988529616385,-10.691250885174318 L 74.74709401355427,-7.769984710312401 A 104.29003846641743 104.29003846641743 0 0 0 59.0390251968847,-10.197585470582695"/><text text-anchor="middle" pointer-events="none" font-size="8px" fill="#000000" x="49.340551176414465" y="-6.993592790058187" font-family="sans-serif">trek</text></g><g class="relationship" transform="translate(-120.8269716120692 8.524427888362844) rotate(385.8375077468932)"><path class="outline" fill="#A5ABB6" stroke="none" d="M 24.018736134675446,6.953439040707552 L 24.277555179777966,5.987513214418485 A 102.41109795122333 102.41109795122333 0 0 0 26.250113070877884,6.495089269814372 L 26.01055519893493,7.465971356367717 A 103.41109795122333 103.41109795122333 0 0 1 24.018736134675446,6.953439040707552 Z M 72.2995264824692,8.213977847827735 L 72.09146342976663,7.235862432296372 A 102.41109795122333 102.41109795122333 0 0 0 74.07939146924357,6.792285837317553 L 73.39696854313868,3.870933590510186 L 81.00961719947824,5.686857717540714 L 74.9892887040501,10.687422166394041 L 74.3068657779452,7.766069919586674 A 103.41109795122333 103.41109795122333 0 0 1 72.2995264824692,8.213977847827735"/><text text-anchor="middle" pointer-events="none" font-size="8px" fill="#000000" x="49.120723268749416" y="12.963652833199816" font-family="sans-serif">twowheeler</text></g><g class="relationship" transform="translate(-20.94764498039821 -155.99569497335128) rotate(512.7995250337307)"><path class="outline" fill="#A5ABB6" stroke="none" d="M 24.018736134675446,6.953439040707552 L 24.277555179777966,5.987513214418485 A 154.40669583019329 154.40669583019329 0 0 0 52.59231498041892,10.808773083146804 L 52.516873732816705,11.805923331685221 A 155.40669583019329 155.40669583019329 0 0 1 24.018736134675446,6.953439040707552 Z M 71.90096809415914,12.05989723752728 L 71.85167794419968,11.061112735686692 A 154.40669583019329 154.40669583019329 0 0 0 100.28303433692327,6.983350731874853 L 99.58276511496072,4.0662249175206 L 107.20637277407695,5.83557684968794 L 101.21672663287333,10.872851817680523 L 100.51645741091079,7.95572600332627 A 155.40669583019329 155.40669583019329 0 0 1 71.90096809415914,12.05989723752728"/><text text-anchor="middle" pointer-events="none" font-size="8px" fill="#000000" x="62.211507427771544" y="14.735499307386618" transform="rotate(180 62.211507427771544 11.735499307386618)" font-family="sans-serif">trek</text></g><g class="relationship" transform="translate(-137.9194120864945 -95.87914652237436) rotate(440.70229845654984)"><path class="outline" fill="#A5ABB6" stroke="none" d="M 24.018736134675446,6.953439040707552 L 24.277555179777966,5.987513214418485 A 103.29003846641743 103.29003846641743 0 0 0 26.465130243214556,6.548114742086014 L 26.22749015298432,7.519468018456337 A 104.29003846641743 104.29003846641743 0 0 1 24.018736134675446,6.953439040707552 Z M 72.5212668776173,8.264632744750202 L 72.31501244632484,7.286134349466792 A 103.29003846641743 103.29003846641743 0 0 0 74.51949691935108,6.796229318691762 L 73.83670563674151,3.8749631438298446 L 81.44958320779716,5.689927355079753 L 75.42988529616385,10.691250885174318 L 74.74709401355427,7.769984710312401 A 104.29003846641743 104.29003846641743 0 0 1 72.5212668776173,8.264632744750202"/><text text-anchor="middle" pointer-events="none" font-size="8px" fill="#000000" x="49.34055117641449" y="12.993592790058187" font-family="sans-serif">twowheeler</text></g><g class="relationship" transform="translate(-120.8269716120692 8.524427888362844) rotate(385.8375077468932)"><path class="outline" fill="#A5ABB6" stroke="none" d="M 24.018736134675446,-6.953439040707552 L 24.277555179777966,-5.987513214418485 A 102.41109795122333 102.41109795122333 0 0 1 39.53050187544322,-8.856966141657082 L 39.42062124620389,-9.850910932537332 A 103.41109795122333 103.41109795122333 0 0 0 24.018736134675446,-6.953439040707552 Z M 58.81940340486998,-10.164385494160669 L 58.741695056301374,-9.167409359760882 A 102.41109795122333 102.41109795122333 0 0 1 74.07939146924357,-6.792285837317553 L 73.39696854313868,-3.870933590510186 L 81.00961719947824,-5.686857717540714 L 74.9892887040501,-10.687422166394041 L 74.3068657779452,-7.766069919586674 A 103.41109795122333 103.41109795122333 0 0 0 58.81940340486998,-10.164385494160669"/><text text-anchor="middle" pointer-events="none" font-size="8px" fill="#000000" x="49.120723268749394" y="-6.963652833199816" font-family="sans-serif">trek</text></g><g class="relationship" transform="translate(299.3865852824801 249.98096569499864) rotate(225.03232180909583)"><path class="outline" fill="#A5ABB6" stroke="none" d="M 25 0.5 L 34.17839556469001 0.5 L 34.17839556469001 -0.5 L 25 -0.5 Z M 53.51433306469001 0.5 L 62.692728629380014 0.5 L 62.692728629380014 3.5 L 69.69272862938001 0 L 62.692728629380014 -3.5 L 62.692728629380014 -0.5 L 53.51433306469001 -0.5 Z"/><text text-anchor="middle" pointer-events="none" font-size="8px" fill="#000000" x="43.84636431469001" y="3" transform="rotate(180 43.84636431469001 0)" font-family="sans-serif">trek</text></g><g class="relationship" transform="translate(151.48670702699124 248.5510083347856) rotate(484.43330314737625)"><path class="outline" fill="#A5ABB6" stroke="none" d="M 24.018736134675446,6.953439040707552 L 24.277555179777966,5.987513214418485 A 103.05932159436722 103.05932159436722 0 0 0 26.4086728746487,6.534231684751404 L 26.170532383042374,7.505462402067067 A 104.05932159436722 104.05932159436722 0 0 1 24.018736134675446,6.953439040707552 Z M 72.46306102886211,8.251371222068116 L 72.25633480467077,7.272972393250555 A 103.05932159436722 103.05932159436722 0 0 0 74.4039601085789,6.795197059848569 L 73.72126524812344,3.873908349791359 L 81.33408290878829,5.689123837128726 L 75.3142199225195,10.690248673258182 L 74.63152506206404,7.768959963200972 A 104.05932159436722 104.05932159436722 0 0 1 72.46306102886211,8.251371222068116"/><text text-anchor="middle" pointer-events="none" font-size="8px" fill="#000000" x="49.2828416321299" y="12.985733665606858" transform="rotate(180 49.2828416321299 9.985733665606858)" font-family="sans-serif">twowheeler</text></g><g class="relationship" transform="translate(91.73136336691243 335.7127628626958) rotate(352.7198769273299)"><path class="outline" fill="#A5ABB6" stroke="none" d="M 24.018736134675446,-6.953439040707552 L 24.277555179777966,-5.987513214418485 A 90.45287299849046 90.45287299849046 0 0 1 25.91145472027437,-6.409020945174618 L 25.670699220157577,-7.379606742084661 A 91.45287299849046 91.45287299849046 0 0 0 24.018736134675446,-6.953439040707552 Z M 66.66445396070313,-8.079255722559154 L 66.45695941250025,-7.101019548383363 A 90.45287299849046 90.45287299849046 0 0 1 68.10429108547632,-6.735513276574739 L 67.42717130986266,-3.8129272967491827 L 75.03651166767156,-5.642664796780466 L 69.0071174529612,-10.632294583008814 L 68.32999767734754,-7.709708603183259 A 91.45287299849046 91.45287299849046 0 0 0 66.66445396070313,-8.079255722559154"/><text text-anchor="middle" pointer-events="none" font-size="8px" fill="#000000" x="46.13639573879331" y="-6.556376200845094" font-family="sans-serif">twowhe…</text></g><g class="relationship" transform="translate(299.3865852824801 249.98096569499864) rotate(319.2206888493767)"><path class="outline" fill="#A5ABB6" stroke="none" d="M 25 0.5 L 48.4501957276312 0.5 L 48.4501957276312 -0.5 L 25 -0.5 Z M 67.7861332276312 0.5 L 91.2363289552624 0.5 L 91.2363289552624 3.5 L 98.2363289552624 0 L 91.2363289552624 -3.5 L 91.2363289552624 -0.5 L 67.7861332276312 -0.5 Z"/><text text-anchor="middle" pointer-events="none" font-size="8px" fill="#000000" x="58.1181644776312" y="3" font-family="sans-serif">trek</text></g><g class="relationship" transform="translate(-20.94764498039821 -155.99569497335128) rotate(321.37144819204735)"><path class="outline" fill="#A5ABB6" stroke="none" d="M 25 0.5 L 50.74333970931865 0.5 L 50.74333970931865 -0.5 L 25 -0.5 Z M 70.07927720931865 0.5 L 95.8226169186373 0.5 L 95.8226169186373 3.5 L 102.8226169186373 0 L 95.8226169186373 -3.5 L 95.8226169186373 -0.5 L 70.07927720931865 -0.5 Z"/><text text-anchor="middle" pointer-events="none" font-size="8px" fill="#000000" x="60.41130845931865" y="3" font-family="sans-serif">trek</text></g><g class="relationship" transform="translate(-137.9194120864945 -95.87914652237436) rotate(487.9372803491816)"><path class="outline" fill="#A5ABB6" stroke="none" d="M 24.018736134675446,-6.953439040707552 L 24.277555179777966,-5.987513214418485 A 150.39010061112512 150.39010061112512 0 0 1 51.577348890676575,-10.662033505916327 L 51.50005637956774,-11.659041965121418 A 151.39010061112512 151.39010061112512 0 0 0 24.018736134675446,-6.953439040707552 Z M 70.88508178478685,-11.916815225619331 L 70.83432744655107,-10.918104057588124 A 150.39010061112512 150.39010061112512 0 0 1 98.24876562273516,-6.971148763006694 L 97.54963606432351,-4.053749602700529 L 105.17255192318483,-5.82607965343051 L 99.18093836728404,-10.861014310081579 L 98.48180880887239,-7.943615149775415 A 151.39010061112512 151.39010061112512 0 0 0 70.88508178478685,-11.916815225619331"/><text text-anchor="middle" pointer-events="none" font-size="8px" fill="#000000" x="61.19508678294952" y="-8.598592846045307" transform="rotate(180 61.19508678294952 -11.598592846045307)" font-family="sans-serif">trek</text></g><g class="relationship" transform="translate(-217.52611105639144 6.243008423662507) rotate(361.35152662301226)"><path class="outline" fill="#A5ABB6" stroke="none" d="M 21.40063509461097,12.933012701892217 L 21.90063509461097,12.06698729810778 A 48.79972602462407 48.79972602462407 0 0 0 33.883298131707996,16.99868446686296 L 33.62884588398535,17.965769806235294 A 49.79972602462407 49.79972602462407 0 0 1 21.40063509461097,12.933012701892217 Z M 55.666805675661976,18.716175393365873 L 55.47872617570433,17.73402158581041 A 48.79972602462407 48.79972602462407 0 0 0 67.76910043405233,13.628835717344012 L 66.44930189770626,10.93474369525962 L 74.27528157497359,10.998321136217251 L 69.52883181584708,17.220958413456536 L 68.20903327950101,14.526866391372144 A 49.79972602462407 49.79972602462407 0 0 1 55.666805675661976,18.716175393365873"/><text text-anchor="middle" pointer-events="none" font-size="8px" fill="#000000" x="44.622785552683766" y="22.076355609132328" font-family="sans-serif">road</text></g><g class="relationship" transform="translate(-137.9194120864945 -95.87914652237436) rotate(487.9372803491816)"><path class="outline" fill="#A5ABB6" stroke="none" d="M 24.018736134675446,6.953439040707552 L 24.277555179777966,5.987513214418485 A 150.39010061112512 150.39010061112512 0 0 0 38.16337271218886,9.013033325550765 L 37.99688565885963,9.999076966103132 A 151.39010061112512 151.39010061112512 0 0 1 24.018736134675446,6.953439040707552 Z M 84.42761707683026,10.616491737284747 L 84.28740817559878,9.626369793272062 A 150.39010061112512 150.39010061112512 0 0 0 98.24876562273516,6.971148763006694 L 97.54963606432351,4.053749602700529 L 105.17255192318483,5.82607965343051 L 99.18093836728404,10.861014310081579 L 98.48180880887239,7.943615149775415 A 151.39010061112512 151.39010061112512 0 0 1 84.42761707683026,10.616491737284747"/><text text-anchor="middle" pointer-events="none" font-size="8px" fill="#000000" x="61.19508678294955" y="14.598592846045307" transform="rotate(180 61.19508678294955 11.598592846045307)" font-family="sans-serif">twowheeler</text></g><g class="relationship" transform="translate(151.48670702699124 248.5510083347856) rotate(526.2391909315829)"><path class="outline" fill="#A5ABB6" stroke="none" d="M 24.018736134675446,-6.953439040707552 L 24.277555179777966,-5.987513214418485 A 161.12720827570848 161.12720827570848 0 0 1 40.86234757298744,-9.507935741373899 L 40.706458334530794,-10.495710283125902 A 162.12720827570848 162.12720827570848 0 0 0 24.018736134675446,-6.953439040707552 Z M 87.15091155007745,-11.089620833861687 L 87.02033157889616,-10.0981830541063 A 161.12720827570848 161.12720827570848 0 0 1 103.68972132977038,-7.002999888669555 L 102.98761689252017,-4.08631523667278 L 110.61233625730456,-5.850870310418498 L 104.62586057943734,-10.891912757998588 L 103.92375614218713,-7.975228106001813 A 162.12720827570848 162.12720827570848 0 0 0 87.15091155007745,-11.089620833861687"/><text text-anchor="middle" pointer-events="none" font-size="8px" fill="#000000" x="63.91369907709385" y="-8.964576572350694" transform="rotate(180 63.91369907709385 -11.964576572350694)" font-family="sans-serif">twowheeler</text></g><g class="relationship" transform="translate(20.441189260960602 280.6438462750858) rotate(397.6847056059904)"><path class="outline" fill="#A5ABB6" stroke="none" d="M 21.40063509461097,12.933012701892217 L 21.90063509461097,12.06698729810778 A 41.852059671324405 41.852059671324405 0 0 0 30.608423893267478,15.85089857080088 L 30.316485070352698,16.80733556489674 A 42.852059671324405 42.852059671324405 0 0 1 21.40063509461097,12.933012701892217 Z M 52.32366968287482,17.60847265552573 L 52.10204661911911,16.633340245228787 A 41.852059671324405 41.852059671324405 0 0 0 61.061916787313905,13.492592428113502 L 59.7547946050189,10.792327329914375 L 67.5803890468277,10.89268485245835 L 62.80474636370724,17.092945892379007 L 61.497624181412235,14.39268079417988 A 42.852059671324405 42.852059671324405 0 0 1 52.32366968287482,17.60847265552573"/><text text-anchor="middle" pointer-events="none" font-size="8px" fill="#000000" x="41.285925088914745" y="21.14606526780058" font-family="sans-serif">road</text></g><g class="relationship" transform="translate(151.48670702699124 248.5510083347856) rotate(526.2391909315829)"><path class="outline" fill="#A5ABB6" stroke="none" d="M 24.018736134675446,6.953439040707552 L 24.277555179777966,5.987513214418485 A 161.12720827570848 161.12720827570848 0 0 0 54.29225044730715,11.053305992058824 L 54.21971089893724,12.050671528821681 A 162.12720827570848 162.12720827570848 0 0 1 24.018736134675446,6.953439040707552 Z M 73.60231589986574,12.298527468849045 L 73.55530361478912,11.299633157596901 A 161.12720827570848 161.12720827570848 0 0 0 103.68972132977038,7.002999888669555 L 102.98761689252017,4.08631523667278 L 110.61233625730456,5.850870310418498 L 104.62586057943734,10.891912757998588 L 103.92375614218713,7.975228106001813 A 162.12720827570848 162.12720827570848 0 0 1 73.60231589986574,12.298527468849045"/><text text-anchor="middle" pointer-events="none" font-size="8px" fill="#000000" x="63.91369907709387" y="14.964576572350694" transform="rotate(180 63.91369907709387 11.964576572350694)" font-family="sans-serif">trek</text></g><g class="relationship" transform="translate(20.441189260960602 280.6438462750858) rotate(397.6847056059904)"><path class="outline" fill="#A5ABB6" stroke="none" d="M 25 0.5 L 25.428017849243545 0.5 L 25.428017849243545 -0.5 L 25 -0.5 Z M 57.654580349243545 0.5 L 58.08259819848709 0.5 L 58.08259819848709 3.5 L 65.08259819848709 0 L 58.08259819848709 -3.5 L 58.08259819848709 -0.5 L 57.654580349243545 -0.5 Z"/><text text-anchor="middle" pointer-events="none" font-size="8px" fill="#000000" x="41.541299099243545" y="3" font-family="sans-serif">twow…</text></g><g class="relationship" transform="translate(-217.52611105639144 6.243008423662507) rotate(361.35152662301226)"><path class="outline" fill="#A5ABB6" stroke="none" d="M 25 0.5 L 26.525133587838447 0.5 L 26.525133587838447 -0.5 L 25 -0.5 Z M 63.20091483783845 0.5 L 64.7260484256769 0.5 L 64.7260484256769 3.5 L 71.7260484256769 0 L 64.7260484256769 -3.5 L 64.7260484256769 -0.5 L 63.20091483783845 -0.5 Z"/><text text-anchor="middle" pointer-events="none" font-size="8px" fill="#000000" x="44.86302421283845" y="3" font-family="sans-serif">twowh…</text></g><g class="relationship" transform="translate(-217.52611105639144 6.243008423662507) rotate(361.35152662301226)"><path class="outline" fill="#A5ABB6" stroke="none" d="M 21.40063509461097,-12.933012701892217 L 21.90063509461097,-12.06698729810778 A 48.79972602462407 48.79972602462407 0 0 1 35.16844515259843,-17.31824261670016 L 34.94032803266404,-18.29187631557918 A 49.79972602462407 49.79972602462407 0 0 0 21.40063509461097,-12.933012701892217 Z M 54.33617866186422,-18.952316520429676 L 54.17481872685237,-17.96542089708698 A 48.79972602462407 48.79972602462407 0 0 1 67.76910043405233,-13.628835717344012 L 66.44930189770626,-10.93474369525962 L 74.27528157497359,-10.998321136217251 L 69.52883181584708,-17.220958413456536 L 68.20903327950101,-14.526866391372144 A 49.79972602462407 49.79972602462407 0 0 0 54.33617866186422,-18.952316520429676"/><text text-anchor="middle" pointer-events="none" font-size="8px" fill="#000000" x="44.62278555268377" y="-16.076355609132328" font-family="sans-serif">trek</text></g><g class="relationship" transform="translate(20.441189260960602 280.6438462750858) rotate(397.6847056059904)"><path class="outline" fill="#A5ABB6" stroke="none" d="M 21.40063509461097,-12.933012701892217 L 21.90063509461097,-12.06698729810778 A 41.852059671324405 41.852059671324405 0 0 1 31.878810739028367,-16.216834484384627 L 31.61722614134736,-17.182015036538502 A 42.852059671324405 42.852059671324405 0 0 0 21.40063509461097,-12.933012701892217 Z M 50.99912842351056,-17.887582835354188 L 50.808414988592375,-16.905937081662103 A 41.852059671324405 41.852059671324405 0 0 1 61.061916787313905,-13.492592428113502 L 59.7547946050189,-10.792327329914375 L 67.5803890468277,-10.89268485245835 L 62.80474636370724,-17.092945892379007 L 61.497624181412235,-14.39268079417988 A 42.852059671324405 42.852059671324405 0 0 0 50.99912842351056,-17.887582835354188"/><text text-anchor="middle" pointer-events="none" font-size="8px" fill="#000000" x="41.28592508891474" y="-15.146065267800573" font-family="sans-serif">trek</text></g><g class="relationship" transform="translate(20.441189260960602 280.6438462750858) rotate(424.87399275052684)"><path class="outline" fill="#A5ABB6" stroke="none" d="M 25 0.5 L 48.697667120489484 0.5 L 48.697667120489484 -0.5 L 25 -0.5 Z M 68.03360462048948 0.5 L 91.73127174097897 0.5 L 91.73127174097897 3.5 L 98.73127174097897 0 L 91.73127174097897 -3.5 L 91.73127174097897 -0.5 L 68.03360462048948 -0.5 Z"/><text text-anchor="middle" pointer-events="none" font-size="8px" fill="#000000" x="58.365635870489484" y="3" font-family="sans-serif">trek</text></g><g class="relationship" transform="translate(72.97877747425687 392.66718951822463) rotate(329.3446637387998)"><path class="outline" fill="#A5ABB6" stroke="none" d="M 25 0.5 L 55.03472482570842 0.5 L 55.03472482570842 -0.5 L 25 -0.5 Z M 74.37066232570842 0.5 L 104.40538715141685 0.5 L 104.40538715141685 3.5 L 111.40538715141685 0 L 104.40538715141685 -3.5 L 104.40538715141685 -0.5 L 74.37066232570842 -0.5 Z"/><text text-anchor="middle" pointer-events="none" font-size="8px" fill="#000000" x="64.70269357570842" y="3" font-family="sans-serif">trek</text></g><g class="relationship" transform="translate(-217.52611105639144 6.243008423662507) rotate(413.4665156940921)"><path class="outline" fill="#A5ABB6" stroke="none" d="M 25 0.5 L 48.22016354102723 0.5 L 48.22016354102723 -0.5 L 25 -0.5 Z M 67.55610104102723 0.5 L 90.77626458205447 0.5 L 90.77626458205447 3.5 L 97.77626458205447 0 L 90.77626458205447 -3.5 L 90.77626458205447 -0.5 L 67.55610104102723 -0.5 Z"/><text text-anchor="middle" pointer-events="none" font-size="8px" fill="#000000" x="57.88813229102723" y="3" font-family="sans-serif">trek</text></g><g class="relationship" transform="translate(-144.43832547086998 104.89485454388208) rotate(336.92511298885665)"><path class="outline" fill="#A5ABB6" stroke="none" d="M 25 0.5 L 51.19863495588416 0.5 L 51.19863495588416 -0.5 L 25 -0.5 Z M 70.53457245588416 0.5 L 96.73320741176832 0.5 L 96.73320741176832 3.5 L 103.73320741176832 0 L 96.73320741176832 -3.5 L 96.73320741176832 -0.5 L 70.53457245588416 -0.5 Z"/><text text-anchor="middle" pointer-events="none" font-size="8px" fill="#000000" x="60.86660370588416" y="3" font-family="sans-serif">trek</text></g></g><g class="layer nodes"><g class="node" transform="translate(408.20304827225635,274.29530993989596)"><circle class="outline" cx="0" cy="0" r="25" fill="#F16667" stroke="#eb2728" stroke-width="2px"/><text text-anchor="middle" pointer-events="none" font-family="sans-serif" dy="1.5625" font-size="25" fill="#FFFFFF"/><text text-anchor="middle" pointer-events="none" x="0" y="5" font-size="10px" fill="#FFFFFF" font-family="sans-serif"> Darjeeling</text></g><g class="node" transform="translate(190.3215108802184,323.11783610106227)"><circle class="outline" cx="0" cy="0" r="25" fill="#D9C8AE" stroke="#c0a378" stroke-width="2px"/><text text-anchor="middle" pointer-events="none" font-family="sans-serif" dy="1.5625" font-size="25" fill="#2A2C34"/><text text-anchor="middle" pointer-events="none" x="0" y="5" font-size="10px" fill="#2A2C34" font-family="sans-serif"> Sandak…</text></g><g class="node" transform="translate(84.29755468250333,-148.8692123899657)"><circle class="outline" cx="0" cy="0" r="25" fill="#F16667" stroke="#eb2728" stroke-width="2px"/><text text-anchor="middle" pointer-events="none" font-family="sans-serif" dy="1.5625" font-size="25" fill="#FFFFFF"/><text text-anchor="middle" pointer-events="none" x="0" y="5" font-size="10px" fill="#FFFFFF" font-family="sans-serif"> Darjeeling</text></g><g class="node" transform="translate(-26.00462789269971,54.43994429241235)"><circle class="outline" cx="0" cy="0" r="25" fill="#D9C8AE" stroke="#c0a378" stroke-width="2px"/><text text-anchor="middle" pointer-events="none" font-family="sans-serif" dy="1.5625" font-size="25" fill="#2A2C34"/><text text-anchor="middle" pointer-events="none" x="0" y="5" font-size="10px" fill="#2A2C34" font-family="sans-serif"> Sandak…</text></g><g class="node" transform="translate(392.7049476070958,169.48950013857217)"><circle class="outline" cx="0" cy="0" r="25" fill="#8DCC93" stroke="#5db665" stroke-width="2px"/><text text-anchor="middle" pointer-events="none" font-family="sans-serif" dy="1.5625" font-size="25" fill="#2A2C34"/><text text-anchor="middle" pointer-events="none" x="0" y="5" font-size="10px" fill="#2A2C34" font-family="sans-serif"> Tumbling</text></g><g class="node" transform="translate(318.1616640539983,89.3053553840964)"><circle class="outline" cx="0" cy="0" r="25" fill="#8DCC93" stroke="#5db665" stroke-width="2px"/><text text-anchor="middle" pointer-events="none" font-family="sans-serif" dy="1.5625" font-size="25" fill="#2A2C34"/><text text-anchor="middle" pointer-events="none" x="0" y="5" font-size="10px" fill="#2A2C34" font-family="sans-serif"> Gairibus</text></g><g class="node" transform="translate(232.4664977988117,182.98533340112763)"><circle class="outline" cx="0" cy="0" r="25" fill="#8DCC93" stroke="#5db665" stroke-width="2px"/><text text-anchor="middle" pointer-events="none" font-family="sans-serif" dy="1.5625" font-size="25" fill="#2A2C34"/><text text-anchor="middle" pointer-events="none" x="0" y="5" font-size="10px" fill="#2A2C34" font-family="sans-serif"> BhikeBh…</text></g><g class="node" transform="translate(78.90859534601658,-235.791388239354)"><circle class="outline" cx="0" cy="0" r="25" fill="#8DCC93" stroke="#5db665" stroke-width="2px"/><text text-anchor="middle" pointer-events="none" font-family="sans-serif" dy="1.5625" font-size="25" fill="#2A2C34"/><text text-anchor="middle" pointer-events="none" x="0" y="5" font-size="10px" fill="#2A2C34" font-family="sans-serif"> Tumbling</text></g><g class="node" transform="translate(153.62030379451005,-134.68570641057997)"><circle class="outline" cx="0" cy="0" r="25" fill="#8DCC93" stroke="#5db665" stroke-width="2px"/><text text-anchor="middle" pointer-events="none" font-family="sans-serif" dy="1.5625" font-size="25" fill="#2A2C34"/><text text-anchor="middle" pointer-events="none" x="0" y="5" font-size="10px" fill="#2A2C34" font-family="sans-serif"> Gairibus</text></g><g class="node" transform="translate(49.678544010907544,-51.744622120252394)"><circle class="outline" cx="0" cy="0" r="25" fill="#8DCC93" stroke="#5db665" stroke-width="2px"/><text text-anchor="middle" pointer-events="none" font-family="sans-serif" dy="1.5625" font-size="25" fill="#2A2C34"/><text text-anchor="middle" pointer-events="none" x="0" y="5" font-size="10px" fill="#2A2C34" font-family="sans-serif"> BhikeBh…</text></g><g class="node" transform="translate(-20.94764498039821,-155.99569497335128)"><circle class="outline" cx="0" cy="0" r="25" fill="#F16667" stroke="#eb2728" stroke-width="2px"/><text text-anchor="middle" pointer-events="none" font-family="sans-serif" dy="1.5625" font-size="25" fill="#FFFFFF"/><text text-anchor="middle" pointer-events="none" x="0" y="5" font-size="10px" fill="#FFFFFF" font-family="sans-serif"> Rimbik</text></g><g class="node" transform="translate(299.3865852824801,249.98096569499864)"><circle class="outline" cx="0" cy="0" r="25" fill="#F16667" stroke="#eb2728" stroke-width="2px"/><text text-anchor="middle" pointer-events="none" font-family="sans-serif" dy="1.5625" font-size="25" fill="#FFFFFF"/><text text-anchor="middle" pointer-events="none" x="0" y="5" font-size="10px" fill="#FFFFFF" font-family="sans-serif"> Rimbik</text></g><g class="node" transform="translate(151.48670702699124,248.5510083347856)"><circle class="outline" cx="0" cy="0" r="25" fill="#8DCC93" stroke="#5db665" stroke-width="2px"/><text text-anchor="middle" pointer-events="none" font-family="sans-serif" dy="1.5625" font-size="25" fill="#2A2C34"/><text text-anchor="middle" pointer-events="none" x="0" y="5" font-size="10px" fill="#2A2C34" font-family="sans-serif"> Sirikhola</text></g><g class="node" transform="translate(91.73136336691243,335.7127628626958)"><circle class="outline" cx="0" cy="0" r="25" fill="#8DCC93" stroke="#5db665" stroke-width="2px"/><text text-anchor="middle" pointer-events="none" font-family="sans-serif" dy="1.5625" font-size="25" fill="#2A2C34"/><text text-anchor="middle" pointer-events="none" x="0" y="5" font-size="10px" fill="#2A2C34" font-family="sans-serif"> Gurdum</text></g><g class="node" transform="translate(-137.9194120864945,-95.87914652237436)"><circle class="outline" cx="0" cy="0" r="25" fill="#8DCC93" stroke="#5db665" stroke-width="2px"/><text text-anchor="middle" pointer-events="none" font-family="sans-serif" dy="1.5625" font-size="25" fill="#2A2C34"/><text text-anchor="middle" pointer-events="none" x="0" y="5" font-size="10px" fill="#2A2C34" font-family="sans-serif"> Sirikhola</text></g><g class="node" transform="translate(-120.8269716120692,8.524427888362844)"><circle class="outline" cx="0" cy="0" r="25" fill="#8DCC93" stroke="#5db665" stroke-width="2px"/><text text-anchor="middle" pointer-events="none" font-family="sans-serif" dy="1.5625" font-size="25" fill="#2A2C34"/><text text-anchor="middle" pointer-events="none" x="0" y="5" font-size="10px" fill="#2A2C34" font-family="sans-serif"> Gurdum</text></g><g class="node" transform="translate(-217.52611105639144,6.243008423662507)"><circle class="outline" cx="0" cy="0" r="25" fill="#8DCC93" stroke="#5db665" stroke-width="2px"/><text text-anchor="middle" pointer-events="none" font-family="sans-serif" dy="1.5625" font-size="25" fill="#2A2C34"/><text text-anchor="middle" pointer-events="none" x="0" y="5" font-size="10px" fill="#2A2C34" font-family="sans-serif"> Rammam</text></g><g class="node" transform="translate(20.441189260960602,280.6438462750858)"><circle class="outline" cx="0" cy="0" r="25" fill="#8DCC93" stroke="#5db665" stroke-width="2px"/><text text-anchor="middle" pointer-events="none" font-family="sans-serif" dy="1.5625" font-size="25" fill="#2A2C34"/><text text-anchor="middle" pointer-events="none" x="0" y="5" font-size="10px" fill="#2A2C34" font-family="sans-serif"> Rammam</text></g><g class="node" transform="translate(72.97877747425687,392.66718951822463)"><circle class="outline" cx="0" cy="0" r="25" fill="#D9C8AE" stroke="#c0a378" stroke-width="2px"/><text text-anchor="middle" pointer-events="none" font-family="sans-serif" dy="1.5625" font-size="25" fill="#2A2C34"/><text text-anchor="middle" pointer-events="none" x="0" y="5" font-size="10px" fill="#2A2C34" font-family="sans-serif"> Sabargr…</text></g><g class="node" transform="translate(-144.43832547086998,104.89485454388208)"><circle class="outline" cx="0" cy="0" r="25" fill="#D9C8AE" stroke="#c0a378" stroke-width="2px"/><text text-anchor="middle" pointer-events="none" font-family="sans-serif" dy="1.5625" font-size="25" fill="#2A2C34"/><text text-anchor="middle" pointer-events="none" x="0" y="5" font-size="10px" fill="#2A2C34" font-family="sans-serif"> Sabargr…</text></g></g></svg>