<svg xmlns="http://www.w3.org/2000/svg" width="403.6685791015625" height="401.0207824707031" viewBox="-95.85131072998047 -88.84939575195312 403.6685791015625 401.0207824707031"><title>Neo4j Graph Visualization</title><desc>Created using Neo4j (http://www.neo4j.com/)</desc><g class="layer relationships"><g class="relationship" transform="translate(278.81721914191587 99.22998274076421) rotate(461.4261942291385)"><path class="outline" fill="#A5ABB6" stroke="none" d="M 25 0.5 L 33.13807908482168 0.5 L 33.13807908482168 -0.5 L 25 -0.5 Z M 67.58339158482168 0.5 L 75.72147066964337 0.5 L 75.72147066964337 3.5 L 82.72147066964337 0 L 75.72147066964337 -3.5 L 75.72147066964337 -0.5 L 67.58339158482168 -0.5 Z"/><text text-anchor="middle" pointer-events="none" font-size="8px" fill="#000000" x="50.36073533482168" y="3" transform="rotate(180 50.36073533482168 0)" font-family="sans-serif">ORIGIN</text></g><g class="relationship" transform="translate(278.81721914191587 99.22998274076421) rotate(247.01267997584637)"><path class="outline" fill="#A5ABB6" stroke="none" d="M 25 0.5 L 26.37594121176282 0.5 L 26.37594121176282 -0.5 L 25 -0.5 Z M 75.04781621176282 0.5 L 76.42375742352564 0.5 L 76.42375742352564 3.5 L 83.42375742352564 0 L 76.42375742352564 -3.5 L 76.42375742352564 -0.5 L 75.04781621176282 -0.5 Z"/><text text-anchor="middle" pointer-events="none" font-size="8px" fill="#000000" x="50.71187871176282" y="3" transform="rotate(180 50.71187871176282 0)" font-family="sans-serif">DESTINA…</text></g><g class="relationship" transform="translate(144.56209334213492 -59.84939020643396) rotate(392.81397155189563)"><path class="outline" fill="#A5ABB6" stroke="none" d="M 25 0.5 L 33.958987037502894 0.5 L 33.958987037502894 -0.5 L 25 -0.5 Z M 68.4042995375029 0.5 L 77.36328657500579 0.5 L 77.36328657500579 3.5 L 84.36328657500579 0 L 77.36328657500579 -3.5 L 77.36328657500579 -0.5 L 68.4042995375029 -0.5 Z"/><text text-anchor="middle" pointer-events="none" font-size="8px" fill="#000000" x="51.181643287502894" y="3" font-family="sans-serif">ORIGIN</text></g><g class="relationship" transform="translate(144.56209334213492 -59.84939020643396) rotate(538.779705570972)"><path class="outline" fill="#A5ABB6" stroke="none" d="M 25 0.5 L 27.014320334004687 0.5 L 27.014320334004687 -0.5 L 25 -0.5 Z M 75.68619533400468 0.5 L 77.70051566800937 0.5 L 77.70051566800937 3.5 L 84.70051566800937 0 L 77.70051566800937 -3.5 L 77.70051566800937 -0.5 L 75.68619533400468 -0.5 Z"/><text text-anchor="middle" pointer-events="none" font-size="8px" fill="#000000" x="51.35025783400469" y="3" transform="rotate(180 51.35025783400469 0)" font-family="sans-serif">DESTINA…</text></g><g class="relationship" transform="translate(-47.61170138835912 13.18994488578483) rotate(319.4025548787487)"><path class="outline" fill="#A5ABB6" stroke="none" d="M 25 0.5 L 26.48918003191187 0.5 L 26.48918003191187 -0.5 L 25 -0.5 Z M 75.16105503191187 0.5 L 76.65023506382374 0.5 L 76.65023506382374 3.5 L 83.65023506382374 0 L 76.65023506382374 -3.5 L 76.65023506382374 -0.5 L 75.16105503191187 -0.5 Z"/><text text-anchor="middle" pointer-events="none" font-size="8px" fill="#000000" x="50.82511753191187" y="3" font-family="sans-serif">DESTINA…</text></g><g class="relationship" transform="translate(-47.61170138835912 13.18994488578483) rotate(460.13804029908704)"><path class="outline" fill="#A5ABB6" stroke="none" d="M 25 0.5 L 33.92900225388647 0.5 L 33.92900225388647 -0.5 L 25 -0.5 Z M 68.37431475388647 0.5 L 77.30331700777295 0.5 L 77.30331700777295 3.5 L 84.30331700777295 0 L 77.30331700777295 -3.5 L 77.30331700777295 -0.5 L 68.37431475388647 -0.5 Z"/><text text-anchor="middle" pointer-events="none" font-size="8px" fill="#000000" x="51.15165850388647" y="3" transform="rotate(180 51.15165850388647 0)" font-family="sans-serif">ORIGIN</text></g><g class="relationship" transform="translate(-32.32677099280418 223.020461011577) rotate(251.34008357979434)"><path class="outline" fill="#A5ABB6" stroke="none" d="M 25 0.5 L 33.230318768494 0.5 L 33.230318768494 -0.5 L 25 -0.5 Z M 67.675631268494 0.5 L 75.905950036988 0.5 L 75.905950036988 3.5 L 82.905950036988 0 L 75.905950036988 -3.5 L 75.905950036988 -0.5 L 67.675631268494 -0.5 Z"/><text text-anchor="middle" pointer-events="none" font-size="8px" fill="#000000" x="50.452975018494" y="3" transform="rotate(180 50.452975018494 0)" font-family="sans-serif">ORIGIN</text></g><g class="relationship" transform="translate(-32.32677099280418 223.020461011577) rotate(394.065900911588)"><path class="outline" fill="#A5ABB6" stroke="none" d="M 25 0.5 L 25.856235429314985 0.5 L 25.856235429314985 -0.5 L 25 -0.5 Z M 74.52811042931498 0.5 L 75.38434585862997 0.5 L 75.38434585862997 3.5 L 82.38434585862997 0 L 75.38434585862997 -3.5 L 75.38434585862997 -0.5 L 74.52811042931498 -0.5 Z"/><text text-anchor="middle" pointer-events="none" font-size="8px" fill="#000000" x="50.192172929314985" y="3" font-family="sans-serif">DESTINA…</text></g></g><g class="layer nodes"><g class="node" transform="translate(56.62976042489575,283.17138164973204)"><circle class="outline" cx="0" cy="0" r="25" fill="#ECB5C9" stroke="#da7298" stroke-width="2px"/><text text-anchor="middle" pointer-events="none" font-family="sans-serif" dy="1.5625" font-size="25" fill="#2A2C34"/><text text-anchor="middle" pointer-events="none" x="0" y="5" font-size="10px" fill="#2A2C34" font-family="sans-serif"> DAY</text></g><g class="node" transform="translate(257.4770059502503,204.81649013714085)"><circle class="outline" cx="0" cy="0" r="25" fill="#ECB5C9" stroke="#da7298" stroke-width="2px"/><text text-anchor="middle" pointer-events="none" font-family="sans-serif" dy="1.5625" font-size="25" fill="#2A2C34"/><text text-anchor="middle" pointer-events="none" x="0" y="5" font-size="10px" fill="#2A2C34" font-family="sans-serif"> LAX</text></g><g class="node" transform="translate(278.81721914191587,99.22998274076421)"><circle class="outline" cx="0" cy="0" r="25" fill="#4C8EDA" stroke="#2870c2" stroke-width="2px"/><text text-anchor="middle" pointer-events="none" font-family="sans-serif" dy="1.5625" font-size="25" fill="#FFFFFF"/><text text-anchor="middle" pointer-events="none" x="0" y="5" font-size="10px" fill="#FFFFFF" font-family="sans-serif"> 11/29/20…</text></g><g class="node" transform="translate(236.4747705742239,-0.5839853354919895)"><circle class="outline" cx="0" cy="0" r="25" fill="#ECB5C9" stroke="#da7298" stroke-width="2px"/><text text-anchor="middle" pointer-events="none" font-family="sans-serif" dy="1.5625" font-size="25" fill="#2A2C34"/><text text-anchor="middle" pointer-events="none" x="0" y="5" font-size="10px" fill="#2A2C34" font-family="sans-serif"> LAS</text></g><g class="node" transform="translate(144.56209334213492,-59.84939020643396)"><circle class="outline" cx="0" cy="0" r="25" fill="#4C8EDA" stroke="#2870c2" stroke-width="2px"/><text text-anchor="middle" pointer-events="none" font-family="sans-serif" dy="1.5625" font-size="25" fill="#FFFFFF"/><text text-anchor="middle" pointer-events="none" x="0" y="5" font-size="10px" fill="#FFFFFF" font-family="sans-serif"> 11/29/20…</text></g><g class="node" transform="translate(34.886457437695746,-57.51314818471089)"><circle class="outline" cx="0" cy="0" r="25" fill="#ECB5C9" stroke="#da7298" stroke-width="2px"/><text text-anchor="middle" pointer-events="none" font-family="sans-serif" dy="1.5625" font-size="25" fill="#2A2C34"/><text text-anchor="middle" pointer-events="none" x="0" y="5" font-size="10px" fill="#2A2C34" font-family="sans-serif"> DEN</text></g><g class="node" transform="translate(-47.61170138835912,13.18994488578483)"><circle class="outline" cx="0" cy="0" r="25" fill="#4C8EDA" stroke="#2870c2" stroke-width="2px"/><text text-anchor="middle" pointer-events="none" font-family="sans-serif" dy="1.5625" font-size="25" fill="#FFFFFF"/><text text-anchor="middle" pointer-events="none" x="0" y="5" font-size="10px" fill="#FFFFFF" font-family="sans-serif"> 11/29/20…</text></g><g class="node" transform="translate(-66.85130699906112,120.78665805513006)"><circle class="outline" cx="0" cy="0" r="25" fill="#ECB5C9" stroke="#da7298" stroke-width="2px"/><text text-anchor="middle" pointer-events="none" font-family="sans-serif" dy="1.5625" font-size="25" fill="#2A2C34"/><text text-anchor="middle" pointer-events="none" x="0" y="5" font-size="10px" fill="#2A2C34" font-family="sans-serif"> MSP</text></g><g class="node" transform="translate(-32.32677099280418,223.020461011577)"><circle class="outline" cx="0" cy="0" r="25" fill="#4C8EDA" stroke="#2870c2" stroke-width="2px"/><text text-anchor="middle" pointer-events="none" font-family="sans-serif" dy="1.5625" font-size="25" fill="#FFFFFF"/><text text-anchor="middle" pointer-events="none" x="0" y="5" font-size="10px" fill="#FFFFFF" font-family="sans-serif"> 11/16/20…</text></g></g></svg>